  0
SECTION
  2
HEADER
  9
$ACADVER
  1
AC1009
  9
$LUNITS
  70
2
  999
Datum:  WGS 84
  999
Grid:  Lat/Lon hddd.ddddd
  999
XY Scale (degrees to drawing units):  1.00000000
  999
Proximity Circles (km to drawing units) 1.00000000
  999
Text Height (drawing units):  1.00000000
  999
Extents:  southwest corner:  N10 50.388 E106 40.937
  999
Extents:  northeast corner:  N10 50.586 E106 41.316
  999
3D DXF graphics where elevation is known
  999
Z Scale (m to drawing units) 1.00000000
  9
$LIMMIN
  10
106.68228228
  20
10.83980156
  9
$LIMMAX
  10
106.68860064
  20
10.84310546
  9
$EXTMIN
  10
106.68228228
  20
10.83980156
  30
2.52900000
  9
$EXTMAX
  10
106.68860064
  20
10.84310546
  30
15.26700000
  0
ENDSEC
  0
SECTION
  2
TABLES
  0
TABLE
  2
LAYER
  70
6
  0
LAYER
  2
Waypoints
  6
CONTINUOUS
  70
0
  62
7
  0
LAYER
  2
WptAttribs
  6
CONTINUOUS
  70
0
  62
7
  0
LAYER
  2
Routes
  6
CONTINUOUS
  70
0
  62
5
  0
LAYER
  2
RteAttribs
  6
CONTINUOUS
  70
0
  62
5
  0
LAYER
  2
Tracks
  6
CONTINUOUS
  70
0
  62
3
  0
LAYER
  2
TrkAttribs
  6
CONTINUOUS
  70
0
  62
3
  0
ENDTAB
  0
ENDSEC
  0
SECTION
  2
BLOCKS
  0
BLOCK
  8
WptAttribs
  70
0
  2
WAYPOINT
  3
WAYPOINT
  10
0.00000000
  20
0.00000000
  30
0.00000000
  0
LINE
  8
WptAttribs
  10
0.00000000
  20
0.00000000
  11
0.60000000
  21
1.50000000
  0
LINE
  8
WptAttribs
  10
0.60000000
  20
1.50000000
  11
1.50000000
  21
0.93750000
  0
LINE
  8
WptAttribs
  10
1.50000000
  20
0.93750000
  11
0.30000000
  21
0.75000000
  0
ATTDEF
  8
WptAttribs
  70
0
  1

  2
Visible
  3
Visible
  10
0.30000000
  20
-0.50000000
  40
1.00000000
  0
ATTDEF
  8
WptAttribs
  70
1
  1

  2
Name
  3
Name
  10
0.30000000
  20
-0.50000000
  40
1.00000000
  0
ATTDEF
  8
WptAttribs
  70
1
  1

  2
Description
  3
Description
  10
0.30000000
  20
-0.50000000
  40
1.00000000
  0
ATTDEF
  8
WptAttribs
  70
1
  1

  2
Type
  3
Type
  10
0.30000000
  20
-0.50000000
  40
1.00000000
  0
ATTDEF
  8
WptAttribs
  70
1
  1

  2
Position
  3
Position
  10
0.30000000
  20
-0.50000000
  40
1.00000000
  0
ATTDEF
  8
WptAttribs
  70
1
  1

  2
Altitude
  3
Altitude
  10
0.30000000
  20
-0.50000000
  40
1.00000000
  0
ATTDEF
  8
WptAttribs
  70
1
  1

  2
Depth
  3
Depth
  10
0.30000000
  20
-0.50000000
  40
1.00000000
  0
ATTDEF
  8
WptAttribs
  70
1
  1

  2
Proximity
  3
Proximity
  10
0.30000000
  20
-0.50000000
  40
1.00000000
  0
ATTDEF
  8
WptAttribs
  70
1
  1

  2
Temperature
  3
Temperature
  10
0.30000000
  20
-0.50000000
  40
1.00000000
  0
ATTDEF
  8
WptAttribs
  70
1
  1

  2
Symbol
  3
Symbol
  10
0.30000000
  20
-0.50000000
  40
1.00000000
  0
ATTDEF
  8
WptAttribs
  70
1
  1

  2
DisplayMode
  3
DisplayMode
  10
0.30000000
  20
-0.50000000
  40
1.00000000
  0
ATTDEF
  8
WptAttribs
  70
1
  1

  2
Color
  3
Color
  10
0.30000000
  20
-0.50000000
  40
1.00000000
  0
ATTDEF
  8
WptAttribs
  70
1
  1

  2
Facility
  3
Facility
  10
0.30000000
  20
-0.50000000
  40
1.00000000
  0
ATTDEF
  8
WptAttribs
  70
1
  1

  2
City
  3
City
  10
0.30000000
  20
-0.50000000
  40
1.00000000
  0
ATTDEF
  8
WptAttribs
  70
1
  1

  2
Country
  3
Country
  10
0.30000000
  20
-0.50000000
  40
1.00000000
  0
ATTDEF
  8
WptAttribs
  70
1
  1

  2
Date Modified
  3
Date Modified
  10
0.30000000
  20
-0.50000000
  40
1.00000000
  0
ATTDEF
  8
WptAttribs
  70
1
  1

  2
Link
  3
Link
  10
0.30000000
  20
-0.50000000
  40
1.00000000
  0
ATTDEF
  8
WptAttribs
  70
1
  1

  2
Categories
  3
Categories
  10
0.30000000
  20
-0.50000000
  40
1.00000000
  0
ENDBLK
  0
BLOCK
  8
RteAttribs
  70
0
  2
ROUTE
  3
ROUTE
  10
0.00000000
  20
0.00000000
  30
0.00000000
  0
LINE
  8
RteAttribs
  10
0.00000000
  20
0.00000000
  11
0.55000000
  21
-1.10000000
  0
LINE
  8
RteAttribs
  10
0.55000000
  20
-1.10000000
  11
0.80000000
  21
-1.10000000
  0
ATTDEF
  8
RteAttribs
  70
0
  1

  2
Visible
  3
Visible
  10
0.80000000
  20
-1.60000000
  40
1.00000000
  0
ATTDEF
  8
RteAttribs
  70
1
  1

  2
Name
  3
Name
  10
0.80000000
  20
-1.60000000
  40
1.00000000
  0
ATTDEF
  8
RteAttribs
  70
1
  1

  2
Length
  3
Length
  10
0.80000000
  20
-1.60000000
  40
1.00000000
  0
ATTDEF
  8
RteAttribs
  70
1
  1

  2
Course
  3
Course
  10
0.80000000
  20
-1.60000000
  40
1.00000000
  0
ATTDEF
  8
RteAttribs
  70
1
  1

  2
Waypoints
  3
Waypoints
  10
0.80000000
  20
-1.60000000
  40
1.00000000
  0
ATTDEF
  8
RteAttribs
  70
1
  1

  2
Link
  3
Link
  10
0.80000000
  20
-1.60000000
  40
1.00000000
  0
ENDBLK
  0
BLOCK
  8
RteAttribs
  70
0
  2
ROUTEPOINT
  3
ROUTEPOINT
  10
0.00000000
  20
0.00000000
  30
0.00000000
  0
LINE
  8
RteAttribs
  10
-0.28867500
  20
-0.16666700
  11
0.00000000
  21
0.33333300
  0
LINE
  8
RteAttribs
  10
0.00000000
  20
0.33333300
  11
0.28867500
  21
-0.16666700
  0
LINE
  8
RteAttribs
  10
0.28867500
  20
-0.16666700
  11
-0.28867500
  21
-0.16666700
  0
ATTDEF
  8
RteAttribs
  70
1
  1

  2
RouteName
  3
RouteName
  10
0.00000000
  20
0.00000000
  40
1.00000000
  0
ATTDEF
  8
RteAttribs
  70
1
  1

  2
Name
  3
Name
  10
0.00000000
  20
0.00000000
  40
1.00000000
  0
ATTDEF
  8
RteAttribs
  70
1
  1

  2
Position
  3
Position
  10
0.00000000
  20
0.00000000
  40
1.00000000
  0
ATTDEF
  8
RteAttribs
  70
1
  1

  2
Altitude
  3
Altitude
  10
0.00000000
  20
0.00000000
  40
1.00000000
  0
ATTDEF
  8
RteAttribs
  70
1
  1

  2
Distance
  3
Distance
  10
0.00000000
  20
0.00000000
  40
1.00000000
  0
ATTDEF
  8
RteAttribs
  70
1
  1

  2
LegLength
  3
LegLength
  10
0.00000000
  20
0.00000000
  40
1.00000000
  0
ATTDEF
  8
RteAttribs
  70
1
  1

  2
LegCourse
  3
LegCourse
  10
0.00000000
  20
0.00000000
  40
1.00000000
  0
ENDBLK
  0
BLOCK
  8
TrkAttribs
  70
0
  2
TRACK
  3
TRACK
  10
0.00000000
  20
0.00000000
  30
0.00000000
  0
LINE
  8
TrkAttribs
  10
0.00000000
  20
0.00000000
  11
0.55000000
  21
-1.10000000
  0
LINE
  8
TrkAttribs
  10
0.55000000
  20
-1.10000000
  11
0.80000000
  21
-1.10000000
  0
ATTDEF
  8
TrkAttribs
  70
0
  1

  2
Visible
  3
Visible
  10
0.80000000
  20
-1.60000000
  40
1.00000000
  0
ATTDEF
  8
TrkAttribs
  70
1
  1

  2
Name
  3
Name
  10
0.80000000
  20
-1.60000000
  40
1.00000000
  0
ATTDEF
  8
TrkAttribs
  70
1
  1

  2
Points
  3
Points
  10
0.80000000
  20
-1.60000000
  40
1.00000000
  0
ATTDEF
  8
TrkAttribs
  70
1
  1

  2
StartTime
  3
StartTime
  10
0.80000000
  20
-1.60000000
  40
1.00000000
  0
ATTDEF
  8
TrkAttribs
  70
1
  1

  2
ElapsedTime
  3
ElapsedTime
  10
0.80000000
  20
-1.60000000
  40
1.00000000
  0
ATTDEF
  8
TrkAttribs
  70
1
  1

  2
Length
  3
Length
  10
0.80000000
  20
-1.60000000
  40
1.00000000
  0
ATTDEF
  8
TrkAttribs
  70
1
  1

  2
AvgSpeed
  3
AvgSpeed
  10
0.80000000
  20
-1.60000000
  40
1.00000000
  0
ATTDEF
  8
TrkAttribs
  70
1
  1

  2
Link
  3
Link
  10
0.80000000
  20
-1.60000000
  40
1.00000000
  0
ENDBLK
  0
BLOCK
  8
TrkAttribs
  70
0
  2
TRACKPOINT
  3
TRACKPOINT
  10
0.00000000
  20
0.00000000
  30
0.00000000
  0
CIRCLE
  8
TrkAttribs
  10
0.00000000
  20
0.00000000
  40
0.10000000
  0
ATTDEF
  8
TrkAttribs
  70
1
  1

  2
TrackName
  3
TrackName
  10
0.00000000
  20
0.00000000
  40
1.00000000
  0
ATTDEF
  8
TrkAttribs
  70
1
  1

  2
Position
  3
Position
  10
0.00000000
  20
0.00000000
  40
1.00000000
  0
ATTDEF
  8
TrkAttribs
  70
1
  1

  2
Time
  3
Time
  10
0.00000000
  20
0.00000000
  40
1.00000000
  0
ATTDEF
  8
TrkAttribs
  70
1
  1

  2
Altitude
  3
Altitude
  10
0.00000000
  20
0.00000000
  40
1.00000000
  0
ATTDEF
  8
TrkAttribs
  70
1
  1

  2
Depth
  3
Depth
  10
0.00000000
  20
0.00000000
  40
1.00000000
  0
ATTDEF
  8
TrkAttribs
  70
1
  1

  2
LegLength
  3
LegLength
  10
0.00000000
  20
0.00000000
  40
1.00000000
  0
ATTDEF
  8
TrkAttribs
  70
1
  1

  2
LegTime
  3
LegTime
  10
0.00000000
  20
0.00000000
  40
1.00000000
  0
ATTDEF
  8
TrkAttribs
  70
1
  1

  2
LegSpeed
  3
LegSpeed
  10
0.00000000
  20
0.00000000
  40
1.00000000
  0
ATTDEF
  8
TrkAttribs
  70
1
  1

  2
LegCourse
  3
LegCourse
  10
0.00000000
  20
0.00000000
  40
1.00000000
  0
ENDBLK
  0
ENDSEC
  0
SECTION
  2
ENTITIES
  0
POINT
  8
Waypoints
  10
106.68228228
  20
10.83980156
  30
10.46000000
  0
INSERT
  8
WptAttribs
  2
WAYPOINT
  41
1
  42
1
  43
1
  50
0
  10
106.68228228
  20
10.83980156
  30
10.46000000
  66
1
  0
ATTRIB
  8
WptAttribs
  70
0
  1
001
  2
Visible
  10
106.98228228
  20
10.33980156
  40
1.00000000
  0
ATTRIB
  8
WptAttribs
  70
1
  1
001
  2
Name
  10
106.98228228
  20
10.33980156
  40
1.00000000
  0
ATTRIB
  8
WptAttribs
  70
1
  1
29-DEC-15 13:12:23
  2
Description
  10
106.98228228
  20
10.33980156
  40
1.00000000
  0
ATTRIB
  8
WptAttribs
  70
1
  1
User Waypoint
  2
Type
  10
106.98228228
  20
10.33980156
  40
1.00000000
  0
ATTRIB
  8
WptAttribs
  70
1
  1
N10 50.388 E106 40.937
  2
Position
  10
106.98228228
  20
10.33980156
  40
1.00000000
  0
ATTRIB
  8
WptAttribs
  70
1
  1
10 m
  2
Altitude
  10
106.98228228
  20
10.33980156
  40
1.00000000
  0
ATTRIB
  8
WptAttribs
  70
1
  1
Flag, Blue
  2
Symbol
  10
106.98228228
  20
10.33980156
  40
1.00000000
  0
ATTRIB
  8
WptAttribs
  70
1
  1
Symbol & Name
  2
DisplayMode
  10
106.98228228
  20
10.33980156
  40
1.00000000
  0
ATTRIB
  8
WptAttribs
  70
1
  1
Unknown
  2
Color
  10
106.98228228
  20
10.33980156
  40
1.00000000
  0
ATTRIB
  8
WptAttribs
  70
1
  1

  2
City
  10
106.98228228
  20
10.33980156
  40
1.00000000
  0
ATTRIB
  8
WptAttribs
  70
1
  1
12/29/2015 1:12:23 PM 
  2
Date Modified
  10
106.98228228
  20
10.33980156
  40
1.00000000
  0
ATTRIB
  8
WptAttribs
  70
1
  1

  2
Link
  10
106.98228228
  20
10.33980156
  40
1.00000000
  0
ATTRIB
  8
WptAttribs
  70
1
  1

  2
Categories
  10
106.98228228
  20
10.33980156
  40
1.00000000
  0
SEQEND
  0
POINT
  8
Waypoints
  10
106.68257967
  20
10.83998663
  30
10.70000000
  0
INSERT
  8
WptAttribs
  2
WAYPOINT
  41
1
  42
1
  43
1
  50
0
  10
106.68257967
  20
10.83998663
  30
10.70000000
  66
1
  0
ATTRIB
  8
WptAttribs
  70
0
  1
002
  2
Visible
  10
106.98257967
  20
10.33998663
  40
1.00000000
  0
ATTRIB
  8
WptAttribs
  70
1
  1
002
  2
Name
  10
106.98257967
  20
10.33998663
  40
1.00000000
  0
ATTRIB
  8
WptAttribs
  70
1
  1
29-DEC-15 13:13:32
  2
Description
  10
106.98257967
  20
10.33998663
  40
1.00000000
  0
ATTRIB
  8
WptAttribs
  70
1
  1
User Waypoint
  2
Type
  10
106.98257967
  20
10.33998663
  40
1.00000000
  0
ATTRIB
  8
WptAttribs
  70
1
  1
N10 50.399 E106 40.955
  2
Position
  10
106.98257967
  20
10.33998663
  40
1.00000000
  0
ATTRIB
  8
WptAttribs
  70
1
  1
11 m
  2
Altitude
  10
106.98257967
  20
10.33998663
  40
1.00000000
  0
ATTRIB
  8
WptAttribs
  70
1
  1
Flag, Blue
  2
Symbol
  10
106.98257967
  20
10.33998663
  40
1.00000000
  0
ATTRIB
  8
WptAttribs
  70
1
  1
Symbol & Name
  2
DisplayMode
  10
106.98257967
  20
10.33998663
  40
1.00000000
  0
ATTRIB
  8
WptAttribs
  70
1
  1
Unknown
  2
Color
  10
106.98257967
  20
10.33998663
  40
1.00000000
  0
ATTRIB
  8
WptAttribs
  70
1
  1

  2
City
  10
106.98257967
  20
10.33998663
  40
1.00000000
  0
ATTRIB
  8
WptAttribs
  70
1
  1
12/29/2015 1:13:32 PM 
  2
Date Modified
  10
106.98257967
  20
10.33998663
  40
1.00000000
  0
ATTRIB
  8
WptAttribs
  70
1
  1

  2
Link
  10
106.98257967
  20
10.33998663
  40
1.00000000
  0
ATTRIB
  8
WptAttribs
  70
1
  1

  2
Categories
  10
106.98257967
  20
10.33998663
  40
1.00000000
  0
SEQEND
  0
POINT
  8
Waypoints
  10
106.68283163
  20
10.84013047
  30
9.49900000
  0
INSERT
  8
WptAttribs
  2
WAYPOINT
  41
1
  42
1
  43
1
  50
0
  10
106.68283163
  20
10.84013047
  30
9.49900000
  66
1
  0
ATTRIB
  8
WptAttribs
  70
0
  1
003
  2
Visible
  10
106.98283163
  20
10.34013047
  40
1.00000000
  0
ATTRIB
  8
WptAttribs
  70
1
  1
003
  2
Name
  10
106.98283163
  20
10.34013047
  40
1.00000000
  0
ATTRIB
  8
WptAttribs
  70
1
  1
29-DEC-15 13:13:46
  2
Description
  10
106.98283163
  20
10.34013047
  40
1.00000000
  0
ATTRIB
  8
WptAttribs
  70
1
  1
User Waypoint
  2
Type
  10
106.98283163
  20
10.34013047
  40
1.00000000
  0
ATTRIB
  8
WptAttribs
  70
1
  1
N10 50.408 E106 40.970
  2
Position
  10
106.98283163
  20
10.34013047
  40
1.00000000
  0
ATTRIB
  8
WptAttribs
  70
1
  1
9 m
  2
Altitude
  10
106.98283163
  20
10.34013047
  40
1.00000000
  0
ATTRIB
  8
WptAttribs
  70
1
  1
Flag, Blue
  2
Symbol
  10
106.98283163
  20
10.34013047
  40
1.00000000
  0
ATTRIB
  8
WptAttribs
  70
1
  1
Symbol & Name
  2
DisplayMode
  10
106.98283163
  20
10.34013047
  40
1.00000000
  0
ATTRIB
  8
WptAttribs
  70
1
  1
Unknown
  2
Color
  10
106.98283163
  20
10.34013047
  40
1.00000000
  0
ATTRIB
  8
WptAttribs
  70
1
  1

  2
City
  10
106.98283163
  20
10.34013047
  40
1.00000000
  0
ATTRIB
  8
WptAttribs
  70
1
  1
12/29/2015 1:13:46 PM 
  2
Date Modified
  10
106.98283163
  20
10.34013047
  40
1.00000000
  0
ATTRIB
  8
WptAttribs
  70
1
  1

  2
Link
  10
106.98283163
  20
10.34013047
  40
1.00000000
  0
ATTRIB
  8
WptAttribs
  70
1
  1

  2
Categories
  10
106.98283163
  20
10.34013047
  40
1.00000000
  0
SEQEND
  0
POINT
  8
Waypoints
  10
106.68314897
  20
10.84029282
  30
9.73900000
  0
INSERT
  8
WptAttribs
  2
WAYPOINT
  41
1
  42
1
  43
1
  50
0
  10
106.68314897
  20
10.84029282
  30
9.73900000
  66
1
  0
ATTRIB
  8
WptAttribs
  70
0
  1
004
  2
Visible
  10
106.98314897
  20
10.34029282
  40
1.00000000
  0
ATTRIB
  8
WptAttribs
  70
1
  1
004
  2
Name
  10
106.98314897
  20
10.34029282
  40
1.00000000
  0
ATTRIB
  8
WptAttribs
  70
1
  1
29-DEC-15 13:14:03
  2
Description
  10
106.98314897
  20
10.34029282
  40
1.00000000
  0
ATTRIB
  8
WptAttribs
  70
1
  1
User Waypoint
  2
Type
  10
106.98314897
  20
10.34029282
  40
1.00000000
  0
ATTRIB
  8
WptAttribs
  70
1
  1
N10 50.418 E106 40.989
  2
Position
  10
106.98314897
  20
10.34029282
  40
1.00000000
  0
ATTRIB
  8
WptAttribs
  70
1
  1
10 m
  2
Altitude
  10
106.98314897
  20
10.34029282
  40
1.00000000
  0
ATTRIB
  8
WptAttribs
  70
1
  1
Flag, Blue
  2
Symbol
  10
106.98314897
  20
10.34029282
  40
1.00000000
  0
ATTRIB
  8
WptAttribs
  70
1
  1
Symbol & Name
  2
DisplayMode
  10
106.98314897
  20
10.34029282
  40
1.00000000
  0
ATTRIB
  8
WptAttribs
  70
1
  1
Unknown
  2
Color
  10
106.98314897
  20
10.34029282
  40
1.00000000
  0
ATTRIB
  8
WptAttribs
  70
1
  1

  2
City
  10
106.98314897
  20
10.34029282
  40
1.00000000
  0
ATTRIB
  8
WptAttribs
  70
1
  1
12/29/2015 1:14:03 PM 
  2
Date Modified
  10
106.98314897
  20
10.34029282
  40
1.00000000
  0
ATTRIB
  8
WptAttribs
  70
1
  1

  2
Link
  10
106.98314897
  20
10.34029282
  40
1.00000000
  0
ATTRIB
  8
WptAttribs
  70
1
  1

  2
Categories
  10
106.98314897
  20
10.34029282
  40
1.00000000
  0
SEQEND
  0
POINT
  8
Waypoints
  10
106.68342439
  20
10.84042551
  30
9.01800000
  0
INSERT
  8
WptAttribs
  2
WAYPOINT
  41
1
  42
1
  43
1
  50
0
  10
106.68342439
  20
10.84042551
  30
9.01800000
  66
1
  0
ATTRIB
  8
WptAttribs
  70
0
  1
005
  2
Visible
  10
106.98342439
  20
10.34042551
  40
1.00000000
  0
ATTRIB
  8
WptAttribs
  70
1
  1
005
  2
Name
  10
106.98342439
  20
10.34042551
  40
1.00000000
  0
ATTRIB
  8
WptAttribs
  70
1
  1
29-DEC-15 13:14:21
  2
Description
  10
106.98342439
  20
10.34042551
  40
1.00000000
  0
ATTRIB
  8
WptAttribs
  70
1
  1
User Waypoint
  2
Type
  10
106.98342439
  20
10.34042551
  40
1.00000000
  0
ATTRIB
  8
WptAttribs
  70
1
  1
N10 50.426 E106 41.005
  2
Position
  10
106.98342439
  20
10.34042551
  40
1.00000000
  0
ATTRIB
  8
WptAttribs
  70
1
  1
9 m
  2
Altitude
  10
106.98342439
  20
10.34042551
  40
1.00000000
  0
ATTRIB
  8
WptAttribs
  70
1
  1
Flag, Blue
  2
Symbol
  10
106.98342439
  20
10.34042551
  40
1.00000000
  0
ATTRIB
  8
WptAttribs
  70
1
  1
Symbol & Name
  2
DisplayMode
  10
106.98342439
  20
10.34042551
  40
1.00000000
  0
ATTRIB
  8
WptAttribs
  70
1
  1
Unknown
  2
Color
  10
106.98342439
  20
10.34042551
  40
1.00000000
  0
ATTRIB
  8
WptAttribs
  70
1
  1

  2
City
  10
106.98342439
  20
10.34042551
  40
1.00000000
  0
ATTRIB
  8
WptAttribs
  70
1
  1
12/29/2015 1:14:21 PM 
  2
Date Modified
  10
106.98342439
  20
10.34042551
  40
1.00000000
  0
ATTRIB
  8
WptAttribs
  70
1
  1

  2
Link
  10
106.98342439
  20
10.34042551
  40
1.00000000
  0
ATTRIB
  8
WptAttribs
  70
1
  1

  2
Categories
  10
106.98342439
  20
10.34042551
  40
1.00000000
  0
SEQEND
  0
POINT
  8
Waypoints
  10
106.68371969
  20
10.84059918
  30
10.22000000
  0
INSERT
  8
WptAttribs
  2
WAYPOINT
  41
1
  42
1
  43
1
  50
0
  10
106.68371969
  20
10.84059918
  30
10.22000000
  66
1
  0
ATTRIB
  8
WptAttribs
  70
0
  1
006
  2
Visible
  10
106.98371969
  20
10.34059918
  40
1.00000000
  0
ATTRIB
  8
WptAttribs
  70
1
  1
006
  2
Name
  10
106.98371969
  20
10.34059918
  40
1.00000000
  0
ATTRIB
  8
WptAttribs
  70
1
  1
29-DEC-15 13:15:03
  2
Description
  10
106.98371969
  20
10.34059918
  40
1.00000000
  0
ATTRIB
  8
WptAttribs
  70
1
  1
User Waypoint
  2
Type
  10
106.98371969
  20
10.34059918
  40
1.00000000
  0
ATTRIB
  8
WptAttribs
  70
1
  1
N10 50.436 E106 41.023
  2
Position
  10
106.98371969
  20
10.34059918
  40
1.00000000
  0
ATTRIB
  8
WptAttribs
  70
1
  1
10 m
  2
Altitude
  10
106.98371969
  20
10.34059918
  40
1.00000000
  0
ATTRIB
  8
WptAttribs
  70
1
  1
Flag, Blue
  2
Symbol
  10
106.98371969
  20
10.34059918
  40
1.00000000
  0
ATTRIB
  8
WptAttribs
  70
1
  1
Symbol & Name
  2
DisplayMode
  10
106.98371969
  20
10.34059918
  40
1.00000000
  0
ATTRIB
  8
WptAttribs
  70
1
  1
Unknown
  2
Color
  10
106.98371969
  20
10.34059918
  40
1.00000000
  0
ATTRIB
  8
WptAttribs
  70
1
  1

  2
City
  10
106.98371969
  20
10.34059918
  40
1.00000000
  0
ATTRIB
  8
WptAttribs
  70
1
  1
12/29/2015 1:15:03 PM 
  2
Date Modified
  10
106.98371969
  20
10.34059918
  40
1.00000000
  0
ATTRIB
  8
WptAttribs
  70
1
  1

  2
Link
  10
106.98371969
  20
10.34059918
  40
1.00000000
  0
ATTRIB
  8
WptAttribs
  70
1
  1

  2
Categories
  10
106.98371969
  20
10.34059918
  40
1.00000000
  0
SEQEND
  0
POINT
  8
Waypoints
  10
106.68398372
  20
10.84075844
  30
10.94100000
  0
INSERT
  8
WptAttribs
  2
WAYPOINT
  41
1
  42
1
  43
1
  50
0
  10
106.68398372
  20
10.84075844
  30
10.94100000
  66
1
  0
ATTRIB
  8
WptAttribs
  70
0
  1
007
  2
Visible
  10
106.98398372
  20
10.34075844
  40
1.00000000
  0
ATTRIB
  8
WptAttribs
  70
1
  1
007
  2
Name
  10
106.98398372
  20
10.34075844
  40
1.00000000
  0
ATTRIB
  8
WptAttribs
  70
1
  1
29-DEC-15 13:15:19
  2
Description
  10
106.98398372
  20
10.34075844
  40
1.00000000
  0
ATTRIB
  8
WptAttribs
  70
1
  1
User Waypoint
  2
Type
  10
106.98398372
  20
10.34075844
  40
1.00000000
  0
ATTRIB
  8
WptAttribs
  70
1
  1
N10 50.446 E106 41.039
  2
Position
  10
106.98398372
  20
10.34075844
  40
1.00000000
  0
ATTRIB
  8
WptAttribs
  70
1
  1
11 m
  2
Altitude
  10
106.98398372
  20
10.34075844
  40
1.00000000
  0
ATTRIB
  8
WptAttribs
  70
1
  1
Flag, Blue
  2
Symbol
  10
106.98398372
  20
10.34075844
  40
1.00000000
  0
ATTRIB
  8
WptAttribs
  70
1
  1
Symbol & Name
  2
DisplayMode
  10
106.98398372
  20
10.34075844
  40
1.00000000
  0
ATTRIB
  8
WptAttribs
  70
1
  1
Unknown
  2
Color
  10
106.98398372
  20
10.34075844
  40
1.00000000
  0
ATTRIB
  8
WptAttribs
  70
1
  1

  2
City
  10
106.98398372
  20
10.34075844
  40
1.00000000
  0
ATTRIB
  8
WptAttribs
  70
1
  1
12/29/2015 1:15:19 PM 
  2
Date Modified
  10
106.98398372
  20
10.34075844
  40
1.00000000
  0
ATTRIB
  8
WptAttribs
  70
1
  1

  2
Link
  10
106.98398372
  20
10.34075844
  40
1.00000000
  0
ATTRIB
  8
WptAttribs
  70
1
  1

  2
Categories
  10
106.98398372
  20
10.34075844
  40
1.00000000
  0
SEQEND
  0
POINT
  8
Waypoints
  10
106.68405505
  20
10.84101367
  30
10.70000000
  0
INSERT
  8
WptAttribs
  2
WAYPOINT
  41
1
  42
1
  43
1
  50
0
  10
106.68405505
  20
10.84101367
  30
10.70000000
  66
1
  0
ATTRIB
  8
WptAttribs
  70
0
  1
008
  2
Visible
  10
106.98405505
  20
10.34101367
  40
1.00000000
  0
ATTRIB
  8
WptAttribs
  70
1
  1
008
  2
Name
  10
106.98405505
  20
10.34101367
  40
1.00000000
  0
ATTRIB
  8
WptAttribs
  70
1
  1
29-DEC-15 13:15:53
  2
Description
  10
106.98405505
  20
10.34101367
  40
1.00000000
  0
ATTRIB
  8
WptAttribs
  70
1
  1
User Waypoint
  2
Type
  10
106.98405505
  20
10.34101367
  40
1.00000000
  0
ATTRIB
  8
WptAttribs
  70
1
  1
N10 50.461 E106 41.043
  2
Position
  10
106.98405505
  20
10.34101367
  40
1.00000000
  0
ATTRIB
  8
WptAttribs
  70
1
  1
11 m
  2
Altitude
  10
106.98405505
  20
10.34101367
  40
1.00000000
  0
ATTRIB
  8
WptAttribs
  70
1
  1
Flag, Blue
  2
Symbol
  10
106.98405505
  20
10.34101367
  40
1.00000000
  0
ATTRIB
  8
WptAttribs
  70
1
  1
Symbol & Name
  2
DisplayMode
  10
106.98405505
  20
10.34101367
  40
1.00000000
  0
ATTRIB
  8
WptAttribs
  70
1
  1
Unknown
  2
Color
  10
106.98405505
  20
10.34101367
  40
1.00000000
  0
ATTRIB
  8
WptAttribs
  70
1
  1

  2
City
  10
106.98405505
  20
10.34101367
  40
1.00000000
  0
ATTRIB
  8
WptAttribs
  70
1
  1
12/29/2015 1:15:53 PM 
  2
Date Modified
  10
106.98405505
  20
10.34101367
  40
1.00000000
  0
ATTRIB
  8
WptAttribs
  70
1
  1

  2
Link
  10
106.98405505
  20
10.34101367
  40
1.00000000
  0
ATTRIB
  8
WptAttribs
  70
1
  1

  2
Categories
  10
106.98405505
  20
10.34101367
  40
1.00000000
  0
SEQEND
  0
POINT
  8
Waypoints
  10
106.68403912
  20
10.84137116
  30
10.46000000
  0
INSERT
  8
WptAttribs
  2
WAYPOINT
  41
1
  42
1
  43
1
  50
0
  10
106.68403912
  20
10.84137116
  30
10.46000000
  66
1
  0
ATTRIB
  8
WptAttribs
  70
0
  1
009
  2
Visible
  10
106.98403912
  20
10.34137116
  40
1.00000000
  0
ATTRIB
  8
WptAttribs
  70
1
  1
009
  2
Name
  10
106.98403912
  20
10.34137116
  40
1.00000000
  0
ATTRIB
  8
WptAttribs
  70
1
  1
29-DEC-15 13:16:09
  2
Description
  10
106.98403912
  20
10.34137116
  40
1.00000000
  0
ATTRIB
  8
WptAttribs
  70
1
  1
User Waypoint
  2
Type
  10
106.98403912
  20
10.34137116
  40
1.00000000
  0
ATTRIB
  8
WptAttribs
  70
1
  1
N10 50.482 E106 41.042
  2
Position
  10
106.98403912
  20
10.34137116
  40
1.00000000
  0
ATTRIB
  8
WptAttribs
  70
1
  1
10 m
  2
Altitude
  10
106.98403912
  20
10.34137116
  40
1.00000000
  0
ATTRIB
  8
WptAttribs
  70
1
  1
Flag, Blue
  2
Symbol
  10
106.98403912
  20
10.34137116
  40
1.00000000
  0
ATTRIB
  8
WptAttribs
  70
1
  1
Symbol & Name
  2
DisplayMode
  10
106.98403912
  20
10.34137116
  40
1.00000000
  0
ATTRIB
  8
WptAttribs
  70
1
  1
Unknown
  2
Color
  10
106.98403912
  20
10.34137116
  40
1.00000000
  0
ATTRIB
  8
WptAttribs
  70
1
  1

  2
City
  10
106.98403912
  20
10.34137116
  40
1.00000000
  0
ATTRIB
  8
WptAttribs
  70
1
  1
12/29/2015 1:16:09 PM 
  2
Date Modified
  10
106.98403912
  20
10.34137116
  40
1.00000000
  0
ATTRIB
  8
WptAttribs
  70
1
  1

  2
Link
  10
106.98403912
  20
10.34137116
  40
1.00000000
  0
ATTRIB
  8
WptAttribs
  70
1
  1

  2
Categories
  10
106.98403912
  20
10.34137116
  40
1.00000000
  0
SEQEND
  0
POINT
  8
Waypoints
  10
106.68437423
  20
10.84155916
  30
9.25800000
  0
INSERT
  8
WptAttribs
  2
WAYPOINT
  41
1
  42
1
  43
1
  50
0
  10
106.68437423
  20
10.84155916
  30
9.25800000
  66
1
  0
ATTRIB
  8
WptAttribs
  70
0
  1
010
  2
Visible
  10
106.98437423
  20
10.34155916
  40
1.00000000
  0
ATTRIB
  8
WptAttribs
  70
1
  1
010
  2
Name
  10
106.98437423
  20
10.34155916
  40
1.00000000
  0
ATTRIB
  8
WptAttribs
  70
1
  1
29-DEC-15 13:16:25
  2
Description
  10
106.98437423
  20
10.34155916
  40
1.00000000
  0
ATTRIB
  8
WptAttribs
  70
1
  1
User Waypoint
  2
Type
  10
106.98437423
  20
10.34155916
  40
1.00000000
  0
ATTRIB
  8
WptAttribs
  70
1
  1
N10 50.494 E106 41.062
  2
Position
  10
106.98437423
  20
10.34155916
  40
1.00000000
  0
ATTRIB
  8
WptAttribs
  70
1
  1
9 m
  2
Altitude
  10
106.98437423
  20
10.34155916
  40
1.00000000
  0
ATTRIB
  8
WptAttribs
  70
1
  1
Flag, Blue
  2
Symbol
  10
106.98437423
  20
10.34155916
  40
1.00000000
  0
ATTRIB
  8
WptAttribs
  70
1
  1
Symbol & Name
  2
DisplayMode
  10
106.98437423
  20
10.34155916
  40
1.00000000
  0
ATTRIB
  8
WptAttribs
  70
1
  1
Unknown
  2
Color
  10
106.98437423
  20
10.34155916
  40
1.00000000
  0
ATTRIB
  8
WptAttribs
  70
1
  1

  2
City
  10
106.98437423
  20
10.34155916
  40
1.00000000
  0
ATTRIB
  8
WptAttribs
  70
1
  1
12/29/2015 1:16:25 PM 
  2
Date Modified
  10
106.98437423
  20
10.34155916
  40
1.00000000
  0
ATTRIB
  8
WptAttribs
  70
1
  1

  2
Link
  10
106.98437423
  20
10.34155916
  40
1.00000000
  0
ATTRIB
  8
WptAttribs
  70
1
  1

  2
Categories
  10
106.98437423
  20
10.34155916
  40
1.00000000
  0
SEQEND
  0
POINT
  8
Waypoints
  10
106.68464539
  20
10.84167089
  30
9.49900000
  0
INSERT
  8
WptAttribs
  2
WAYPOINT
  41
1
  42
1
  43
1
  50
0
  10
106.68464539
  20
10.84167089
  30
9.49900000
  66
1
  0
ATTRIB
  8
WptAttribs
  70
0
  1
011
  2
Visible
  10
106.98464539
  20
10.34167089
  40
1.00000000
  0
ATTRIB
  8
WptAttribs
  70
1
  1
011
  2
Name
  10
106.98464539
  20
10.34167089
  40
1.00000000
  0
ATTRIB
  8
WptAttribs
  70
1
  1
29-DEC-15 13:16:42
  2
Description
  10
106.98464539
  20
10.34167089
  40
1.00000000
  0
ATTRIB
  8
WptAttribs
  70
1
  1
User Waypoint
  2
Type
  10
106.98464539
  20
10.34167089
  40
1.00000000
  0
ATTRIB
  8
WptAttribs
  70
1
  1
N10 50.500 E106 41.079
  2
Position
  10
106.98464539
  20
10.34167089
  40
1.00000000
  0
ATTRIB
  8
WptAttribs
  70
1
  1
9 m
  2
Altitude
  10
106.98464539
  20
10.34167089
  40
1.00000000
  0
ATTRIB
  8
WptAttribs
  70
1
  1
Flag, Blue
  2
Symbol
  10
106.98464539
  20
10.34167089
  40
1.00000000
  0
ATTRIB
  8
WptAttribs
  70
1
  1
Symbol & Name
  2
DisplayMode
  10
106.98464539
  20
10.34167089
  40
1.00000000
  0
ATTRIB
  8
WptAttribs
  70
1
  1
Unknown
  2
Color
  10
106.98464539
  20
10.34167089
  40
1.00000000
  0
ATTRIB
  8
WptAttribs
  70
1
  1

  2
City
  10
106.98464539
  20
10.34167089
  40
1.00000000
  0
ATTRIB
  8
WptAttribs
  70
1
  1
12/29/2015 1:16:42 PM 
  2
Date Modified
  10
106.98464539
  20
10.34167089
  40
1.00000000
  0
ATTRIB
  8
WptAttribs
  70
1
  1

  2
Link
  10
106.98464539
  20
10.34167089
  40
1.00000000
  0
ATTRIB
  8
WptAttribs
  70
1
  1

  2
Categories
  10
106.98464539
  20
10.34167089
  40
1.00000000
  0
SEQEND
  0
POINT
  8
Waypoints
  10
106.68491059
  20
10.84177265
  30
9.25800000
  0
INSERT
  8
WptAttribs
  2
WAYPOINT
  41
1
  42
1
  43
1
  50
0
  10
106.68491059
  20
10.84177265
  30
9.25800000
  66
1
  0
ATTRIB
  8
WptAttribs
  70
0
  1
012
  2
Visible
  10
106.98491059
  20
10.34177265
  40
1.00000000
  0
ATTRIB
  8
WptAttribs
  70
1
  1
012
  2
Name
  10
106.98491059
  20
10.34177265
  40
1.00000000
  0
ATTRIB
  8
WptAttribs
  70
1
  1
29-DEC-15 13:17:00
  2
Description
  10
106.98491059
  20
10.34177265
  40
1.00000000
  0
ATTRIB
  8
WptAttribs
  70
1
  1
User Waypoint
  2
Type
  10
106.98491059
  20
10.34177265
  40
1.00000000
  0
ATTRIB
  8
WptAttribs
  70
1
  1
N10 50.506 E106 41.095
  2
Position
  10
106.98491059
  20
10.34177265
  40
1.00000000
  0
ATTRIB
  8
WptAttribs
  70
1
  1
9 m
  2
Altitude
  10
106.98491059
  20
10.34177265
  40
1.00000000
  0
ATTRIB
  8
WptAttribs
  70
1
  1
Flag, Blue
  2
Symbol
  10
106.98491059
  20
10.34177265
  40
1.00000000
  0
ATTRIB
  8
WptAttribs
  70
1
  1
Symbol & Name
  2
DisplayMode
  10
106.98491059
  20
10.34177265
  40
1.00000000
  0
ATTRIB
  8
WptAttribs
  70
1
  1
Unknown
  2
Color
  10
106.98491059
  20
10.34177265
  40
1.00000000
  0
ATTRIB
  8
WptAttribs
  70
1
  1

  2
City
  10
106.98491059
  20
10.34177265
  40
1.00000000
  0
ATTRIB
  8
WptAttribs
  70
1
  1
12/29/2015 1:17:00 PM 
  2
Date Modified
  10
106.98491059
  20
10.34177265
  40
1.00000000
  0
ATTRIB
  8
WptAttribs
  70
1
  1

  2
Link
  10
106.98491059
  20
10.34177265
  40
1.00000000
  0
ATTRIB
  8
WptAttribs
  70
1
  1

  2
Categories
  10
106.98491059
  20
10.34177265
  40
1.00000000
  0
SEQEND
  0
POINT
  8
Waypoints
  10
106.68520077
  20
10.84188354
  30
9.25800000
  0
INSERT
  8
WptAttribs
  2
WAYPOINT
  41
1
  42
1
  43
1
  50
0
  10
106.68520077
  20
10.84188354
  30
9.25800000
  66
1
  0
ATTRIB
  8
WptAttribs
  70
0
  1
013
  2
Visible
  10
106.98520077
  20
10.34188354
  40
1.00000000
  0
ATTRIB
  8
WptAttribs
  70
1
  1
013
  2
Name
  10
106.98520077
  20
10.34188354
  40
1.00000000
  0
ATTRIB
  8
WptAttribs
  70
1
  1
29-DEC-15 13:17:18
  2
Description
  10
106.98520077
  20
10.34188354
  40
1.00000000
  0
ATTRIB
  8
WptAttribs
  70
1
  1
User Waypoint
  2
Type
  10
106.98520077
  20
10.34188354
  40
1.00000000
  0
ATTRIB
  8
WptAttribs
  70
1
  1
N10 50.513 E106 41.112
  2
Position
  10
106.98520077
  20
10.34188354
  40
1.00000000
  0
ATTRIB
  8
WptAttribs
  70
1
  1
9 m
  2
Altitude
  10
106.98520077
  20
10.34188354
  40
1.00000000
  0
ATTRIB
  8
WptAttribs
  70
1
  1
Flag, Blue
  2
Symbol
  10
106.98520077
  20
10.34188354
  40
1.00000000
  0
ATTRIB
  8
WptAttribs
  70
1
  1
Symbol & Name
  2
DisplayMode
  10
106.98520077
  20
10.34188354
  40
1.00000000
  0
ATTRIB
  8
WptAttribs
  70
1
  1
Unknown
  2
Color
  10
106.98520077
  20
10.34188354
  40
1.00000000
  0
ATTRIB
  8
WptAttribs
  70
1
  1

  2
City
  10
106.98520077
  20
10.34188354
  40
1.00000000
  0
ATTRIB
  8
WptAttribs
  70
1
  1
12/29/2015 1:17:18 PM 
  2
Date Modified
  10
106.98520077
  20
10.34188354
  40
1.00000000
  0
ATTRIB
  8
WptAttribs
  70
1
  1

  2
Link
  10
106.98520077
  20
10.34188354
  40
1.00000000
  0
ATTRIB
  8
WptAttribs
  70
1
  1

  2
Categories
  10
106.98520077
  20
10.34188354
  40
1.00000000
  0
SEQEND
  0
POINT
  8
Waypoints
  10
106.68546849
  20
10.84199770
  30
10.70000000
  0
INSERT
  8
WptAttribs
  2
WAYPOINT
  41
1
  42
1
  43
1
  50
0
  10
106.68546849
  20
10.84199770
  30
10.70000000
  66
1
  0
ATTRIB
  8
WptAttribs
  70
0
  1
014
  2
Visible
  10
106.98546849
  20
10.34199770
  40
1.00000000
  0
ATTRIB
  8
WptAttribs
  70
1
  1
014
  2
Name
  10
106.98546849
  20
10.34199770
  40
1.00000000
  0
ATTRIB
  8
WptAttribs
  70
1
  1
29-DEC-15 13:17:58
  2
Description
  10
106.98546849
  20
10.34199770
  40
1.00000000
  0
ATTRIB
  8
WptAttribs
  70
1
  1
User Waypoint
  2
Type
  10
106.98546849
  20
10.34199770
  40
1.00000000
  0
ATTRIB
  8
WptAttribs
  70
1
  1
N10 50.520 E106 41.128
  2
Position
  10
106.98546849
  20
10.34199770
  40
1.00000000
  0
ATTRIB
  8
WptAttribs
  70
1
  1
11 m
  2
Altitude
  10
106.98546849
  20
10.34199770
  40
1.00000000
  0
ATTRIB
  8
WptAttribs
  70
1
  1
Flag, Blue
  2
Symbol
  10
106.98546849
  20
10.34199770
  40
1.00000000
  0
ATTRIB
  8
WptAttribs
  70
1
  1
Symbol & Name
  2
DisplayMode
  10
106.98546849
  20
10.34199770
  40
1.00000000
  0
ATTRIB
  8
WptAttribs
  70
1
  1
Unknown
  2
Color
  10
106.98546849
  20
10.34199770
  40
1.00000000
  0
ATTRIB
  8
WptAttribs
  70
1
  1

  2
City
  10
106.98546849
  20
10.34199770
  40
1.00000000
  0
ATTRIB
  8
WptAttribs
  70
1
  1
12/29/2015 1:17:58 PM 
  2
Date Modified
  10
106.98546849
  20
10.34199770
  40
1.00000000
  0
ATTRIB
  8
WptAttribs
  70
1
  1

  2
Link
  10
106.98546849
  20
10.34199770
  40
1.00000000
  0
ATTRIB
  8
WptAttribs
  70
1
  1

  2
Categories
  10
106.98546849
  20
10.34199770
  40
1.00000000
  0
SEQEND
  0
POINT
  8
Waypoints
  10
106.68593989
  20
10.84218889
  30
11.66200000
  0
INSERT
  8
WptAttribs
  2
WAYPOINT
  41
1
  42
1
  43
1
  50
0
  10
106.68593989
  20
10.84218889
  30
11.66200000
  66
1
  0
ATTRIB
  8
WptAttribs
  70
0
  1
015
  2
Visible
  10
106.98593989
  20
10.34218889
  40
1.00000000
  0
ATTRIB
  8
WptAttribs
  70
1
  1
015
  2
Name
  10
106.98593989
  20
10.34218889
  40
1.00000000
  0
ATTRIB
  8
WptAttribs
  70
1
  1
29-DEC-15 13:18:24
  2
Description
  10
106.98593989
  20
10.34218889
  40
1.00000000
  0
ATTRIB
  8
WptAttribs
  70
1
  1
User Waypoint
  2
Type
  10
106.98593989
  20
10.34218889
  40
1.00000000
  0
ATTRIB
  8
WptAttribs
  70
1
  1
N10 50.531 E106 41.156
  2
Position
  10
106.98593989
  20
10.34218889
  40
1.00000000
  0
ATTRIB
  8
WptAttribs
  70
1
  1
12 m
  2
Altitude
  10
106.98593989
  20
10.34218889
  40
1.00000000
  0
ATTRIB
  8
WptAttribs
  70
1
  1
Flag, Blue
  2
Symbol
  10
106.98593989
  20
10.34218889
  40
1.00000000
  0
ATTRIB
  8
WptAttribs
  70
1
  1
Symbol & Name
  2
DisplayMode
  10
106.98593989
  20
10.34218889
  40
1.00000000
  0
ATTRIB
  8
WptAttribs
  70
1
  1
Unknown
  2
Color
  10
106.98593989
  20
10.34218889
  40
1.00000000
  0
ATTRIB
  8
WptAttribs
  70
1
  1

  2
City
  10
106.98593989
  20
10.34218889
  40
1.00000000
  0
ATTRIB
  8
WptAttribs
  70
1
  1
12/29/2015 1:18:24 PM 
  2
Date Modified
  10
106.98593989
  20
10.34218889
  40
1.00000000
  0
ATTRIB
  8
WptAttribs
  70
1
  1

  2
Link
  10
106.98593989
  20
10.34218889
  40
1.00000000
  0
ATTRIB
  8
WptAttribs
  70
1
  1

  2
Categories
  10
106.98593989
  20
10.34218889
  40
1.00000000
  0
SEQEND
  0
POINT
  8
Waypoints
  10
106.68617517
  20
10.84227699
  30
11.90200000
  0
INSERT
  8
WptAttribs
  2
WAYPOINT
  41
1
  42
1
  43
1
  50
0
  10
106.68617517
  20
10.84227699
  30
11.90200000
  66
1
  0
ATTRIB
  8
WptAttribs
  70
0
  1
016
  2
Visible
  10
106.98617517
  20
10.34227699
  40
1.00000000
  0
ATTRIB
  8
WptAttribs
  70
1
  1
016
  2
Name
  10
106.98617517
  20
10.34227699
  40
1.00000000
  0
ATTRIB
  8
WptAttribs
  70
1
  1
29-DEC-15 13:18:42
  2
Description
  10
106.98617517
  20
10.34227699
  40
1.00000000
  0
ATTRIB
  8
WptAttribs
  70
1
  1
User Waypoint
  2
Type
  10
106.98617517
  20
10.34227699
  40
1.00000000
  0
ATTRIB
  8
WptAttribs
  70
1
  1
N10 50.537 E106 41.171
  2
Position
  10
106.98617517
  20
10.34227699
  40
1.00000000
  0
ATTRIB
  8
WptAttribs
  70
1
  1
12 m
  2
Altitude
  10
106.98617517
  20
10.34227699
  40
1.00000000
  0
ATTRIB
  8
WptAttribs
  70
1
  1
Flag, Blue
  2
Symbol
  10
106.98617517
  20
10.34227699
  40
1.00000000
  0
ATTRIB
  8
WptAttribs
  70
1
  1
Symbol & Name
  2
DisplayMode
  10
106.98617517
  20
10.34227699
  40
1.00000000
  0
ATTRIB
  8
WptAttribs
  70
1
  1
Unknown
  2
Color
  10
106.98617517
  20
10.34227699
  40
1.00000000
  0
ATTRIB
  8
WptAttribs
  70
1
  1

  2
City
  10
106.98617517
  20
10.34227699
  40
1.00000000
  0
ATTRIB
  8
WptAttribs
  70
1
  1
12/29/2015 1:18:42 PM 
  2
Date Modified
  10
106.98617517
  20
10.34227699
  40
1.00000000
  0
ATTRIB
  8
WptAttribs
  70
1
  1

  2
Link
  10
106.98617517
  20
10.34227699
  40
1.00000000
  0
ATTRIB
  8
WptAttribs
  70
1
  1

  2
Categories
  10
106.98617517
  20
10.34227699
  40
1.00000000
  0
SEQEND
  0
POINT
  8
Waypoints
  10
106.68632990
  20
10.84234203
  30
12.14200000
  0
INSERT
  8
WptAttribs
  2
WAYPOINT
  41
1
  42
1
  43
1
  50
0
  10
106.68632990
  20
10.84234203
  30
12.14200000
  66
1
  0
ATTRIB
  8
WptAttribs
  70
0
  1
017
  2
Visible
  10
106.98632990
  20
10.34234203
  40
1.00000000
  0
ATTRIB
  8
WptAttribs
  70
1
  1
017
  2
Name
  10
106.98632990
  20
10.34234203
  40
1.00000000
  0
ATTRIB
  8
WptAttribs
  70
1
  1
29-DEC-15 13:19:24
  2
Description
  10
106.98632990
  20
10.34234203
  40
1.00000000
  0
ATTRIB
  8
WptAttribs
  70
1
  1
User Waypoint
  2
Type
  10
106.98632990
  20
10.34234203
  40
1.00000000
  0
ATTRIB
  8
WptAttribs
  70
1
  1
N10 50.541 E106 41.180
  2
Position
  10
106.98632990
  20
10.34234203
  40
1.00000000
  0
ATTRIB
  8
WptAttribs
  70
1
  1
12 m
  2
Altitude
  10
106.98632990
  20
10.34234203
  40
1.00000000
  0
ATTRIB
  8
WptAttribs
  70
1
  1
Flag, Blue
  2
Symbol
  10
106.98632990
  20
10.34234203
  40
1.00000000
  0
ATTRIB
  8
WptAttribs
  70
1
  1
Symbol & Name
  2
DisplayMode
  10
106.98632990
  20
10.34234203
  40
1.00000000
  0
ATTRIB
  8
WptAttribs
  70
1
  1
Unknown
  2
Color
  10
106.98632990
  20
10.34234203
  40
1.00000000
  0
ATTRIB
  8
WptAttribs
  70
1
  1

  2
City
  10
106.98632990
  20
10.34234203
  40
1.00000000
  0
ATTRIB
  8
WptAttribs
  70
1
  1
12/29/2015 1:19:24 PM 
  2
Date Modified
  10
106.98632990
  20
10.34234203
  40
1.00000000
  0
ATTRIB
  8
WptAttribs
  70
1
  1

  2
Link
  10
106.98632990
  20
10.34234203
  40
1.00000000
  0
ATTRIB
  8
WptAttribs
  70
1
  1

  2
Categories
  10
106.98632990
  20
10.34234203
  40
1.00000000
  0
SEQEND
  0
POINT
  8
Waypoints
  10
106.68659736
  20
10.84243314
  30
14.54600000
  0
INSERT
  8
WptAttribs
  2
WAYPOINT
  41
1
  42
1
  43
1
  50
0
  10
106.68659736
  20
10.84243314
  30
14.54600000
  66
1
  0
ATTRIB
  8
WptAttribs
  70
0
  1
018
  2
Visible
  10
106.98659736
  20
10.34243314
  40
1.00000000
  0
ATTRIB
  8
WptAttribs
  70
1
  1
018
  2
Name
  10
106.98659736
  20
10.34243314
  40
1.00000000
  0
ATTRIB
  8
WptAttribs
  70
1
  1
29-DEC-15 13:19:52
  2
Description
  10
106.98659736
  20
10.34243314
  40
1.00000000
  0
ATTRIB
  8
WptAttribs
  70
1
  1
User Waypoint
  2
Type
  10
106.98659736
  20
10.34243314
  40
1.00000000
  0
ATTRIB
  8
WptAttribs
  70
1
  1
N10 50.546 E106 41.196
  2
Position
  10
106.98659736
  20
10.34243314
  40
1.00000000
  0
ATTRIB
  8
WptAttribs
  70
1
  1
15 m
  2
Altitude
  10
106.98659736
  20
10.34243314
  40
1.00000000
  0
ATTRIB
  8
WptAttribs
  70
1
  1
Flag, Blue
  2
Symbol
  10
106.98659736
  20
10.34243314
  40
1.00000000
  0
ATTRIB
  8
WptAttribs
  70
1
  1
Symbol & Name
  2
DisplayMode
  10
106.98659736
  20
10.34243314
  40
1.00000000
  0
ATTRIB
  8
WptAttribs
  70
1
  1
Unknown
  2
Color
  10
106.98659736
  20
10.34243314
  40
1.00000000
  0
ATTRIB
  8
WptAttribs
  70
1
  1

  2
City
  10
106.98659736
  20
10.34243314
  40
1.00000000
  0
ATTRIB
  8
WptAttribs
  70
1
  1
12/29/2015 1:19:52 PM 
  2
Date Modified
  10
106.98659736
  20
10.34243314
  40
1.00000000
  0
ATTRIB
  8
WptAttribs
  70
1
  1

  2
Link
  10
106.98659736
  20
10.34243314
  40
1.00000000
  0
ATTRIB
  8
WptAttribs
  70
1
  1

  2
Categories
  10
106.98659736
  20
10.34243314
  40
1.00000000
  0
SEQEND
  0
POINT
  8
Waypoints
  10
106.68690791
  20
10.84256751
  30
15.02600000
  0
INSERT
  8
WptAttribs
  2
WAYPOINT
  41
1
  42
1
  43
1
  50
0
  10
106.68690791
  20
10.84256751
  30
15.02600000
  66
1
  0
ATTRIB
  8
WptAttribs
  70
0
  1
019
  2
Visible
  10
106.98690791
  20
10.34256751
  40
1.00000000
  0
ATTRIB
  8
WptAttribs
  70
1
  1
019
  2
Name
  10
106.98690791
  20
10.34256751
  40
1.00000000
  0
ATTRIB
  8
WptAttribs
  70
1
  1
29-DEC-15 13:20:28
  2
Description
  10
106.98690791
  20
10.34256751
  40
1.00000000
  0
ATTRIB
  8
WptAttribs
  70
1
  1
User Waypoint
  2
Type
  10
106.98690791
  20
10.34256751
  40
1.00000000
  0
ATTRIB
  8
WptAttribs
  70
1
  1
N10 50.554 E106 41.214
  2
Position
  10
106.98690791
  20
10.34256751
  40
1.00000000
  0
ATTRIB
  8
WptAttribs
  70
1
  1
15 m
  2
Altitude
  10
106.98690791
  20
10.34256751
  40
1.00000000
  0
ATTRIB
  8
WptAttribs
  70
1
  1
Flag, Blue
  2
Symbol
  10
106.98690791
  20
10.34256751
  40
1.00000000
  0
ATTRIB
  8
WptAttribs
  70
1
  1
Symbol & Name
  2
DisplayMode
  10
106.98690791
  20
10.34256751
  40
1.00000000
  0
ATTRIB
  8
WptAttribs
  70
1
  1
Unknown
  2
Color
  10
106.98690791
  20
10.34256751
  40
1.00000000
  0
ATTRIB
  8
WptAttribs
  70
1
  1

  2
City
  10
106.98690791
  20
10.34256751
  40
1.00000000
  0
ATTRIB
  8
WptAttribs
  70
1
  1
12/29/2015 1:20:28 PM 
  2
Date Modified
  10
106.98690791
  20
10.34256751
  40
1.00000000
  0
ATTRIB
  8
WptAttribs
  70
1
  1

  2
Link
  10
106.98690791
  20
10.34256751
  40
1.00000000
  0
ATTRIB
  8
WptAttribs
  70
1
  1

  2
Categories
  10
106.98690791
  20
10.34256751
  40
1.00000000
  0
SEQEND
  0
POINT
  8
Waypoints
  10
106.68720254
  20
10.84269097
  30
15.26700000
  0
INSERT
  8
WptAttribs
  2
WAYPOINT
  41
1
  42
1
  43
1
  50
0
  10
106.68720254
  20
10.84269097
  30
15.26700000
  66
1
  0
ATTRIB
  8
WptAttribs
  70
0
  1
020
  2
Visible
  10
106.98720254
  20
10.34269097
  40
1.00000000
  0
ATTRIB
  8
WptAttribs
  70
1
  1
020
  2
Name
  10
106.98720254
  20
10.34269097
  40
1.00000000
  0
ATTRIB
  8
WptAttribs
  70
1
  1
29-DEC-15 13:20:50
  2
Description
  10
106.98720254
  20
10.34269097
  40
1.00000000
  0
ATTRIB
  8
WptAttribs
  70
1
  1
User Waypoint
  2
Type
  10
106.98720254
  20
10.34269097
  40
1.00000000
  0
ATTRIB
  8
WptAttribs
  70
1
  1
N10 50.561 E106 41.232
  2
Position
  10
106.98720254
  20
10.34269097
  40
1.00000000
  0
ATTRIB
  8
WptAttribs
  70
1
  1
15 m
  2
Altitude
  10
106.98720254
  20
10.34269097
  40
1.00000000
  0
ATTRIB
  8
WptAttribs
  70
1
  1
Flag, Blue
  2
Symbol
  10
106.98720254
  20
10.34269097
  40
1.00000000
  0
ATTRIB
  8
WptAttribs
  70
1
  1
Symbol & Name
  2
DisplayMode
  10
106.98720254
  20
10.34269097
  40
1.00000000
  0
ATTRIB
  8
WptAttribs
  70
1
  1
Unknown
  2
Color
  10
106.98720254
  20
10.34269097
  40
1.00000000
  0
ATTRIB
  8
WptAttribs
  70
1
  1

  2
City
  10
106.98720254
  20
10.34269097
  40
1.00000000
  0
ATTRIB
  8
WptAttribs
  70
1
  1
12/29/2015 1:20:50 PM 
  2
Date Modified
  10
106.98720254
  20
10.34269097
  40
1.00000000
  0
ATTRIB
  8
WptAttribs
  70
1
  1

  2
Link
  10
106.98720254
  20
10.34269097
  40
1.00000000
  0
ATTRIB
  8
WptAttribs
  70
1
  1

  2
Categories
  10
106.98720254
  20
10.34269097
  40
1.00000000
  0
SEQEND
  0
POINT
  8
Waypoints
  10
106.68747948
  20
10.84282357
  30
14.78600000
  0
INSERT
  8
WptAttribs
  2
WAYPOINT
  41
1
  42
1
  43
1
  50
0
  10
106.68747948
  20
10.84282357
  30
14.78600000
  66
1
  0
ATTRIB
  8
WptAttribs
  70
0
  1
021
  2
Visible
  10
106.98747948
  20
10.34282357
  40
1.00000000
  0
ATTRIB
  8
WptAttribs
  70
1
  1
021
  2
Name
  10
106.98747948
  20
10.34282357
  40
1.00000000
  0
ATTRIB
  8
WptAttribs
  70
1
  1
29-DEC-15 13:21:21
  2
Description
  10
106.98747948
  20
10.34282357
  40
1.00000000
  0
ATTRIB
  8
WptAttribs
  70
1
  1
User Waypoint
  2
Type
  10
106.98747948
  20
10.34282357
  40
1.00000000
  0
ATTRIB
  8
WptAttribs
  70
1
  1
N10 50.569 E106 41.249
  2
Position
  10
106.98747948
  20
10.34282357
  40
1.00000000
  0
ATTRIB
  8
WptAttribs
  70
1
  1
15 m
  2
Altitude
  10
106.98747948
  20
10.34282357
  40
1.00000000
  0
ATTRIB
  8
WptAttribs
  70
1
  1
Flag, Blue
  2
Symbol
  10
106.98747948
  20
10.34282357
  40
1.00000000
  0
ATTRIB
  8
WptAttribs
  70
1
  1
Symbol & Name
  2
DisplayMode
  10
106.98747948
  20
10.34282357
  40
1.00000000
  0
ATTRIB
  8
WptAttribs
  70
1
  1
Unknown
  2
Color
  10
106.98747948
  20
10.34282357
  40
1.00000000
  0
ATTRIB
  8
WptAttribs
  70
1
  1

  2
City
  10
106.98747948
  20
10.34282357
  40
1.00000000
  0
ATTRIB
  8
WptAttribs
  70
1
  1
12/29/2015 1:21:21 PM 
  2
Date Modified
  10
106.98747948
  20
10.34282357
  40
1.00000000
  0
ATTRIB
  8
WptAttribs
  70
1
  1

  2
Link
  10
106.98747948
  20
10.34282357
  40
1.00000000
  0
ATTRIB
  8
WptAttribs
  70
1
  1

  2
Categories
  10
106.98747948
  20
10.34282357
  40
1.00000000
  0
SEQEND
  0
POINT
  8
Waypoints
  10
106.68771660
  20
10.84293338
  30
15.02600000
  0
INSERT
  8
WptAttribs
  2
WAYPOINT
  41
1
  42
1
  43
1
  50
0
  10
106.68771660
  20
10.84293338
  30
15.02600000
  66
1
  0
ATTRIB
  8
WptAttribs
  70
0
  1
022
  2
Visible
  10
106.98771660
  20
10.34293338
  40
1.00000000
  0
ATTRIB
  8
WptAttribs
  70
1
  1
022
  2
Name
  10
106.98771660
  20
10.34293338
  40
1.00000000
  0
ATTRIB
  8
WptAttribs
  70
1
  1
29-DEC-15 13:21:38
  2
Description
  10
106.98771660
  20
10.34293338
  40
1.00000000
  0
ATTRIB
  8
WptAttribs
  70
1
  1
User Waypoint
  2
Type
  10
106.98771660
  20
10.34293338
  40
1.00000000
  0
ATTRIB
  8
WptAttribs
  70
1
  1
N10 50.576 E106 41.263
  2
Position
  10
106.98771660
  20
10.34293338
  40
1.00000000
  0
ATTRIB
  8
WptAttribs
  70
1
  1
15 m
  2
Altitude
  10
106.98771660
  20
10.34293338
  40
1.00000000
  0
ATTRIB
  8
WptAttribs
  70
1
  1
Flag, Blue
  2
Symbol
  10
106.98771660
  20
10.34293338
  40
1.00000000
  0
ATTRIB
  8
WptAttribs
  70
1
  1
Symbol & Name
  2
DisplayMode
  10
106.98771660
  20
10.34293338
  40
1.00000000
  0
ATTRIB
  8
WptAttribs
  70
1
  1
Unknown
  2
Color
  10
106.98771660
  20
10.34293338
  40
1.00000000
  0
ATTRIB
  8
WptAttribs
  70
1
  1

  2
City
  10
106.98771660
  20
10.34293338
  40
1.00000000
  0
ATTRIB
  8
WptAttribs
  70
1
  1
12/29/2015 1:21:38 PM 
  2
Date Modified
  10
106.98771660
  20
10.34293338
  40
1.00000000
  0
ATTRIB
  8
WptAttribs
  70
1
  1

  2
Link
  10
106.98771660
  20
10.34293338
  40
1.00000000
  0
ATTRIB
  8
WptAttribs
  70
1
  1

  2
Categories
  10
106.98771660
  20
10.34293338
  40
1.00000000
  0
SEQEND
  0
POINT
  8
Waypoints
  10
106.68797451
  20
10.84303924
  30
15.02600000
  0
INSERT
  8
WptAttribs
  2
WAYPOINT
  41
1
  42
1
  43
1
  50
0
  10
106.68797451
  20
10.84303924
  30
15.02600000
  66
1
  0
ATTRIB
  8
WptAttribs
  70
0
  1
023
  2
Visible
  10
106.98797451
  20
10.34303924
  40
1.00000000
  0
ATTRIB
  8
WptAttribs
  70
1
  1
023
  2
Name
  10
106.98797451
  20
10.34303924
  40
1.00000000
  0
ATTRIB
  8
WptAttribs
  70
1
  1
29-DEC-15 13:21:53
  2
Description
  10
106.98797451
  20
10.34303924
  40
1.00000000
  0
ATTRIB
  8
WptAttribs
  70
1
  1
User Waypoint
  2
Type
  10
106.98797451
  20
10.34303924
  40
1.00000000
  0
ATTRIB
  8
WptAttribs
  70
1
  1
N10 50.582 E106 41.278
  2
Position
  10
106.98797451
  20
10.34303924
  40
1.00000000
  0
ATTRIB
  8
WptAttribs
  70
1
  1
15 m
  2
Altitude
  10
106.98797451
  20
10.34303924
  40
1.00000000
  0
ATTRIB
  8
WptAttribs
  70
1
  1
Flag, Blue
  2
Symbol
  10
106.98797451
  20
10.34303924
  40
1.00000000
  0
ATTRIB
  8
WptAttribs
  70
1
  1
Symbol & Name
  2
DisplayMode
  10
106.98797451
  20
10.34303924
  40
1.00000000
  0
ATTRIB
  8
WptAttribs
  70
1
  1
Unknown
  2
Color
  10
106.98797451
  20
10.34303924
  40
1.00000000
  0
ATTRIB
  8
WptAttribs
  70
1
  1

  2
City
  10
106.98797451
  20
10.34303924
  40
1.00000000
  0
ATTRIB
  8
WptAttribs
  70
1
  1
12/29/2015 1:21:53 PM 
  2
Date Modified
  10
106.98797451
  20
10.34303924
  40
1.00000000
  0
ATTRIB
  8
WptAttribs
  70
1
  1

  2
Link
  10
106.98797451
  20
10.34303924
  40
1.00000000
  0
ATTRIB
  8
WptAttribs
  70
1
  1

  2
Categories
  10
106.98797451
  20
10.34303924
  40
1.00000000
  0
SEQEND
  0
POINT
  8
Waypoints
  10
106.68830551
  20
10.84308869
  30
13.58400000
  0
INSERT
  8
WptAttribs
  2
WAYPOINT
  41
1
  42
1
  43
1
  50
0
  10
106.68830551
  20
10.84308869
  30
13.58400000
  66
1
  0
ATTRIB
  8
WptAttribs
  70
0
  1
024
  2
Visible
  10
106.98830551
  20
10.34308869
  40
1.00000000
  0
ATTRIB
  8
WptAttribs
  70
1
  1
024
  2
Name
  10
106.98830551
  20
10.34308869
  40
1.00000000
  0
ATTRIB
  8
WptAttribs
  70
1
  1
29-DEC-15 13:22:12
  2
Description
  10
106.98830551
  20
10.34308869
  40
1.00000000
  0
ATTRIB
  8
WptAttribs
  70
1
  1
User Waypoint
  2
Type
  10
106.98830551
  20
10.34308869
  40
1.00000000
  0
ATTRIB
  8
WptAttribs
  70
1
  1
N10 50.585 E106 41.298
  2
Position
  10
106.98830551
  20
10.34308869
  40
1.00000000
  0
ATTRIB
  8
WptAttribs
  70
1
  1
14 m
  2
Altitude
  10
106.98830551
  20
10.34308869
  40
1.00000000
  0
ATTRIB
  8
WptAttribs
  70
1
  1
Flag, Blue
  2
Symbol
  10
106.98830551
  20
10.34308869
  40
1.00000000
  0
ATTRIB
  8
WptAttribs
  70
1
  1
Symbol & Name
  2
DisplayMode
  10
106.98830551
  20
10.34308869
  40
1.00000000
  0
ATTRIB
  8
WptAttribs
  70
1
  1
Unknown
  2
Color
  10
106.98830551
  20
10.34308869
  40
1.00000000
  0
ATTRIB
  8
WptAttribs
  70
1
  1

  2
City
  10
106.98830551
  20
10.34308869
  40
1.00000000
  0
ATTRIB
  8
WptAttribs
  70
1
  1
12/29/2015 1:22:12 PM 
  2
Date Modified
  10
106.98830551
  20
10.34308869
  40
1.00000000
  0
ATTRIB
  8
WptAttribs
  70
1
  1

  2
Link
  10
106.98830551
  20
10.34308869
  40
1.00000000
  0
ATTRIB
  8
WptAttribs
  70
1
  1

  2
Categories
  10
106.98830551
  20
10.34308869
  40
1.00000000
  0
SEQEND
  0
POINT
  8
Waypoints
  10
106.68852973
  20
10.84310546
  30
13.10400000
  0
INSERT
  8
WptAttribs
  2
WAYPOINT
  41
1
  42
1
  43
1
  50
0
  10
106.68852973
  20
10.84310546
  30
13.10400000
  66
1
  0
ATTRIB
  8
WptAttribs
  70
0
  1
025
  2
Visible
  10
106.98852973
  20
10.34310546
  40
1.00000000
  0
ATTRIB
  8
WptAttribs
  70
1
  1
025
  2
Name
  10
106.98852973
  20
10.34310546
  40
1.00000000
  0
ATTRIB
  8
WptAttribs
  70
1
  1
29-DEC-15 13:22:27
  2
Description
  10
106.98852973
  20
10.34310546
  40
1.00000000
  0
ATTRIB
  8
WptAttribs
  70
1
  1
User Waypoint
  2
Type
  10
106.98852973
  20
10.34310546
  40
1.00000000
  0
ATTRIB
  8
WptAttribs
  70
1
  1
N10 50.586 E106 41.312
  2
Position
  10
106.98852973
  20
10.34310546
  40
1.00000000
  0
ATTRIB
  8
WptAttribs
  70
1
  1
13 m
  2
Altitude
  10
106.98852973
  20
10.34310546
  40
1.00000000
  0
ATTRIB
  8
WptAttribs
  70
1
  1
Flag, Blue
  2
Symbol
  10
106.98852973
  20
10.34310546
  40
1.00000000
  0
ATTRIB
  8
WptAttribs
  70
1
  1
Symbol & Name
  2
DisplayMode
  10
106.98852973
  20
10.34310546
  40
1.00000000
  0
ATTRIB
  8
WptAttribs
  70
1
  1
Unknown
  2
Color
  10
106.98852973
  20
10.34310546
  40
1.00000000
  0
ATTRIB
  8
WptAttribs
  70
1
  1

  2
City
  10
106.98852973
  20
10.34310546
  40
1.00000000
  0
ATTRIB
  8
WptAttribs
  70
1
  1
12/29/2015 1:22:27 PM 
  2
Date Modified
  10
106.98852973
  20
10.34310546
  40
1.00000000
  0
ATTRIB
  8
WptAttribs
  70
1
  1

  2
Link
  10
106.98852973
  20
10.34310546
  40
1.00000000
  0
ATTRIB
  8
WptAttribs
  70
1
  1

  2
Categories
  10
106.98852973
  20
10.34310546
  40
1.00000000
  0
SEQEND
  0
POINT
  8
Waypoints
  10
106.68860064
  20
10.84293078
  30
8.77800000
  0
INSERT
  8
WptAttribs
  2
WAYPOINT
  41
1
  42
1
  43
1
  50
0
  10
106.68860064
  20
10.84293078
  30
8.77800000
  66
1
  0
ATTRIB
  8
WptAttribs
  70
0
  1
026
  2
Visible
  10
106.98860064
  20
10.34293078
  40
1.00000000
  0
ATTRIB
  8
WptAttribs
  70
1
  1
026
  2
Name
  10
106.98860064
  20
10.34293078
  40
1.00000000
  0
ATTRIB
  8
WptAttribs
  70
1
  1
29-DEC-15 13:22:49
  2
Description
  10
106.98860064
  20
10.34293078
  40
1.00000000
  0
ATTRIB
  8
WptAttribs
  70
1
  1
User Waypoint
  2
Type
  10
106.98860064
  20
10.34293078
  40
1.00000000
  0
ATTRIB
  8
WptAttribs
  70
1
  1
N10 50.576 E106 41.316
  2
Position
  10
106.98860064
  20
10.34293078
  40
1.00000000
  0
ATTRIB
  8
WptAttribs
  70
1
  1
9 m
  2
Altitude
  10
106.98860064
  20
10.34293078
  40
1.00000000
  0
ATTRIB
  8
WptAttribs
  70
1
  1
Flag, Blue
  2
Symbol
  10
106.98860064
  20
10.34293078
  40
1.00000000
  0
ATTRIB
  8
WptAttribs
  70
1
  1
Symbol & Name
  2
DisplayMode
  10
106.98860064
  20
10.34293078
  40
1.00000000
  0
ATTRIB
  8
WptAttribs
  70
1
  1
Unknown
  2
Color
  10
106.98860064
  20
10.34293078
  40
1.00000000
  0
ATTRIB
  8
WptAttribs
  70
1
  1

  2
City
  10
106.98860064
  20
10.34293078
  40
1.00000000
  0
ATTRIB
  8
WptAttribs
  70
1
  1
12/29/2015 1:22:49 PM 
  2
Date Modified
  10
106.98860064
  20
10.34293078
  40
1.00000000
  0
ATTRIB
  8
WptAttribs
  70
1
  1

  2
Link
  10
106.98860064
  20
10.34293078
  40
1.00000000
  0
ATTRIB
  8
WptAttribs
  70
1
  1

  2
Categories
  10
106.98860064
  20
10.34293078
  40
1.00000000
  0
SEQEND
  0
POINT
  8
Waypoints
  10
106.68674857
  20
10.84212553
  30
8.77800000
  0
INSERT
  8
WptAttribs
  2
WAYPOINT
  41
1
  42
1
  43
1
  50
0
  10
106.68674857
  20
10.84212553
  30
8.77800000
  66
1
  0
ATTRIB
  8
WptAttribs
  70
0
  1
027
  2
Visible
  10
106.98674857
  20
10.34212553
  40
1.00000000
  0
ATTRIB
  8
WptAttribs
  70
1
  1
027
  2
Name
  10
106.98674857
  20
10.34212553
  40
1.00000000
  0
ATTRIB
  8
WptAttribs
  70
1
  1
29-DEC-15 13:25:17
  2
Description
  10
106.98674857
  20
10.34212553
  40
1.00000000
  0
ATTRIB
  8
WptAttribs
  70
1
  1
User Waypoint
  2
Type
  10
106.98674857
  20
10.34212553
  40
1.00000000
  0
ATTRIB
  8
WptAttribs
  70
1
  1
N10 50.528 E106 41.205
  2
Position
  10
106.98674857
  20
10.34212553
  40
1.00000000
  0
ATTRIB
  8
WptAttribs
  70
1
  1
9 m
  2
Altitude
  10
106.98674857
  20
10.34212553
  40
1.00000000
  0
ATTRIB
  8
WptAttribs
  70
1
  1
Flag, Blue
  2
Symbol
  10
106.98674857
  20
10.34212553
  40
1.00000000
  0
ATTRIB
  8
WptAttribs
  70
1
  1
Symbol & Name
  2
DisplayMode
  10
106.98674857
  20
10.34212553
  40
1.00000000
  0
ATTRIB
  8
WptAttribs
  70
1
  1
Unknown
  2
Color
  10
106.98674857
  20
10.34212553
  40
1.00000000
  0
ATTRIB
  8
WptAttribs
  70
1
  1

  2
City
  10
106.98674857
  20
10.34212553
  40
1.00000000
  0
ATTRIB
  8
WptAttribs
  70
1
  1
12/29/2015 1:25:17 PM 
  2
Date Modified
  10
106.98674857
  20
10.34212553
  40
1.00000000
  0
ATTRIB
  8
WptAttribs
  70
1
  1

  2
Link
  10
106.98674857
  20
10.34212553
  40
1.00000000
  0
ATTRIB
  8
WptAttribs
  70
1
  1

  2
Categories
  10
106.98674857
  20
10.34212553
  40
1.00000000
  0
SEQEND
  0
POINT
  8
Waypoints
  10
106.68682007
  20
10.84184892
  30
9.25800000
  0
INSERT
  8
WptAttribs
  2
WAYPOINT
  41
1
  42
1
  43
1
  50
0
  10
106.68682007
  20
10.84184892
  30
9.25800000
  66
1
  0
ATTRIB
  8
WptAttribs
  70
0
  1
028
  2
Visible
  10
106.98682007
  20
10.34184892
  40
1.00000000
  0
ATTRIB
  8
WptAttribs
  70
1
  1
028
  2
Name
  10
106.98682007
  20
10.34184892
  40
1.00000000
  0
ATTRIB
  8
WptAttribs
  70
1
  1
29-DEC-15 13:26:23
  2
Description
  10
106.98682007
  20
10.34184892
  40
1.00000000
  0
ATTRIB
  8
WptAttribs
  70
1
  1
User Waypoint
  2
Type
  10
106.98682007
  20
10.34184892
  40
1.00000000
  0
ATTRIB
  8
WptAttribs
  70
1
  1
N10 50.511 E106 41.209
  2
Position
  10
106.98682007
  20
10.34184892
  40
1.00000000
  0
ATTRIB
  8
WptAttribs
  70
1
  1
9 m
  2
Altitude
  10
106.98682007
  20
10.34184892
  40
1.00000000
  0
ATTRIB
  8
WptAttribs
  70
1
  1
Flag, Blue
  2
Symbol
  10
106.98682007
  20
10.34184892
  40
1.00000000
  0
ATTRIB
  8
WptAttribs
  70
1
  1
Symbol & Name
  2
DisplayMode
  10
106.98682007
  20
10.34184892
  40
1.00000000
  0
ATTRIB
  8
WptAttribs
  70
1
  1
Unknown
  2
Color
  10
106.98682007
  20
10.34184892
  40
1.00000000
  0
ATTRIB
  8
WptAttribs
  70
1
  1

  2
City
  10
106.98682007
  20
10.34184892
  40
1.00000000
  0
ATTRIB
  8
WptAttribs
  70
1
  1
12/29/2015 1:26:23 PM 
  2
Date Modified
  10
106.98682007
  20
10.34184892
  40
1.00000000
  0
ATTRIB
  8
WptAttribs
  70
1
  1

  2
Link
  10
106.98682007
  20
10.34184892
  40
1.00000000
  0
ATTRIB
  8
WptAttribs
  70
1
  1

  2
Categories
  10
106.98682007
  20
10.34184892
  40
1.00000000
  0
SEQEND
  0
POINT
  8
Waypoints
  10
106.68702350
  20
10.84228143
  30
6.13400000
  0
INSERT
  8
WptAttribs
  2
WAYPOINT
  41
1
  42
1
  43
1
  50
0
  10
106.68702350
  20
10.84228143
  30
6.13400000
  66
1
  0
ATTRIB
  8
WptAttribs
  70
0
  1
029
  2
Visible
  10
106.98702350
  20
10.34228143
  40
1.00000000
  0
ATTRIB
  8
WptAttribs
  70
1
  1
029
  2
Name
  10
106.98702350
  20
10.34228143
  40
1.00000000
  0
ATTRIB
  8
WptAttribs
  70
1
  1
29-DEC-15 13:28:02
  2
Description
  10
106.98702350
  20
10.34228143
  40
1.00000000
  0
ATTRIB
  8
WptAttribs
  70
1
  1
User Waypoint
  2
Type
  10
106.98702350
  20
10.34228143
  40
1.00000000
  0
ATTRIB
  8
WptAttribs
  70
1
  1
N10 50.537 E106 41.221
  2
Position
  10
106.98702350
  20
10.34228143
  40
1.00000000
  0
ATTRIB
  8
WptAttribs
  70
1
  1
6 m
  2
Altitude
  10
106.98702350
  20
10.34228143
  40
1.00000000
  0
ATTRIB
  8
WptAttribs
  70
1
  1
Flag, Blue
  2
Symbol
  10
106.98702350
  20
10.34228143
  40
1.00000000
  0
ATTRIB
  8
WptAttribs
  70
1
  1
Symbol & Name
  2
DisplayMode
  10
106.98702350
  20
10.34228143
  40
1.00000000
  0
ATTRIB
  8
WptAttribs
  70
1
  1
Unknown
  2
Color
  10
106.98702350
  20
10.34228143
  40
1.00000000
  0
ATTRIB
  8
WptAttribs
  70
1
  1

  2
City
  10
106.98702350
  20
10.34228143
  40
1.00000000
  0
ATTRIB
  8
WptAttribs
  70
1
  1
12/29/2015 1:28:02 PM 
  2
Date Modified
  10
106.98702350
  20
10.34228143
  40
1.00000000
  0
ATTRIB
  8
WptAttribs
  70
1
  1

  2
Link
  10
106.98702350
  20
10.34228143
  40
1.00000000
  0
ATTRIB
  8
WptAttribs
  70
1
  1

  2
Categories
  10
106.98702350
  20
10.34228143
  40
1.00000000
  0
SEQEND
  0
POINT
  8
Waypoints
  10
106.68727077
  20
10.84240708
  30
6.61500000
  0
INSERT
  8
WptAttribs
  2
WAYPOINT
  41
1
  42
1
  43
1
  50
0
  10
106.68727077
  20
10.84240708
  30
6.61500000
  66
1
  0
ATTRIB
  8
WptAttribs
  70
0
  1
030
  2
Visible
  10
106.98727077
  20
10.34240708
  40
1.00000000
  0
ATTRIB
  8
WptAttribs
  70
1
  1
030
  2
Name
  10
106.98727077
  20
10.34240708
  40
1.00000000
  0
ATTRIB
  8
WptAttribs
  70
1
  1
29-DEC-15 13:29:24
  2
Description
  10
106.98727077
  20
10.34240708
  40
1.00000000
  0
ATTRIB
  8
WptAttribs
  70
1
  1
User Waypoint
  2
Type
  10
106.98727077
  20
10.34240708
  40
1.00000000
  0
ATTRIB
  8
WptAttribs
  70
1
  1
N10 50.544 E106 41.236
  2
Position
  10
106.98727077
  20
10.34240708
  40
1.00000000
  0
ATTRIB
  8
WptAttribs
  70
1
  1
7 m
  2
Altitude
  10
106.98727077
  20
10.34240708
  40
1.00000000
  0
ATTRIB
  8
WptAttribs
  70
1
  1
Flag, Blue
  2
Symbol
  10
106.98727077
  20
10.34240708
  40
1.00000000
  0
ATTRIB
  8
WptAttribs
  70
1
  1
Symbol & Name
  2
DisplayMode
  10
106.98727077
  20
10.34240708
  40
1.00000000
  0
ATTRIB
  8
WptAttribs
  70
1
  1
Unknown
  2
Color
  10
106.98727077
  20
10.34240708
  40
1.00000000
  0
ATTRIB
  8
WptAttribs
  70
1
  1

  2
City
  10
106.98727077
  20
10.34240708
  40
1.00000000
  0
ATTRIB
  8
WptAttribs
  70
1
  1
12/29/2015 1:29:24 PM 
  2
Date Modified
  10
106.98727077
  20
10.34240708
  40
1.00000000
  0
ATTRIB
  8
WptAttribs
  70
1
  1

  2
Link
  10
106.98727077
  20
10.34240708
  40
1.00000000
  0
ATTRIB
  8
WptAttribs
  70
1
  1

  2
Categories
  10
106.98727077
  20
10.34240708
  40
1.00000000
  0
SEQEND
  0
POINT
  8
Waypoints
  10
106.68738266
  20
10.84207524
  30
6.37400000
  0
INSERT
  8
WptAttribs
  2
WAYPOINT
  41
1
  42
1
  43
1
  50
0
  10
106.68738266
  20
10.84207524
  30
6.37400000
  66
1
  0
ATTRIB
  8
WptAttribs
  70
0
  1
031
  2
Visible
  10
106.98738266
  20
10.34207524
  40
1.00000000
  0
ATTRIB
  8
WptAttribs
  70
1
  1
031
  2
Name
  10
106.98738266
  20
10.34207524
  40
1.00000000
  0
ATTRIB
  8
WptAttribs
  70
1
  1
29-DEC-15 13:30:13
  2
Description
  10
106.98738266
  20
10.34207524
  40
1.00000000
  0
ATTRIB
  8
WptAttribs
  70
1
  1
User Waypoint
  2
Type
  10
106.98738266
  20
10.34207524
  40
1.00000000
  0
ATTRIB
  8
WptAttribs
  70
1
  1
N10 50.525 E106 41.243
  2
Position
  10
106.98738266
  20
10.34207524
  40
1.00000000
  0
ATTRIB
  8
WptAttribs
  70
1
  1
6 m
  2
Altitude
  10
106.98738266
  20
10.34207524
  40
1.00000000
  0
ATTRIB
  8
WptAttribs
  70
1
  1
Flag, Blue
  2
Symbol
  10
106.98738266
  20
10.34207524
  40
1.00000000
  0
ATTRIB
  8
WptAttribs
  70
1
  1
Symbol & Name
  2
DisplayMode
  10
106.98738266
  20
10.34207524
  40
1.00000000
  0
ATTRIB
  8
WptAttribs
  70
1
  1
Unknown
  2
Color
  10
106.98738266
  20
10.34207524
  40
1.00000000
  0
ATTRIB
  8
WptAttribs
  70
1
  1

  2
City
  10
106.98738266
  20
10.34207524
  40
1.00000000
  0
ATTRIB
  8
WptAttribs
  70
1
  1
12/29/2015 1:30:13 PM 
  2
Date Modified
  10
106.98738266
  20
10.34207524
  40
1.00000000
  0
ATTRIB
  8
WptAttribs
  70
1
  1

  2
Link
  10
106.98738266
  20
10.34207524
  40
1.00000000
  0
ATTRIB
  8
WptAttribs
  70
1
  1

  2
Categories
  10
106.98738266
  20
10.34207524
  40
1.00000000
  0
SEQEND
  0
POINT
  8
Waypoints
  10
106.68713322
  20
10.84198220
  30
7.81600000
  0
INSERT
  8
WptAttribs
  2
WAYPOINT
  41
1
  42
1
  43
1
  50
0
  10
106.68713322
  20
10.84198220
  30
7.81600000
  66
1
  0
ATTRIB
  8
WptAttribs
  70
0
  1
032
  2
Visible
  10
106.98713322
  20
10.34198220
  40
1.00000000
  0
ATTRIB
  8
WptAttribs
  70
1
  1
032
  2
Name
  10
106.98713322
  20
10.34198220
  40
1.00000000
  0
ATTRIB
  8
WptAttribs
  70
1
  1
29-DEC-15 13:31:22
  2
Description
  10
106.98713322
  20
10.34198220
  40
1.00000000
  0
ATTRIB
  8
WptAttribs
  70
1
  1
User Waypoint
  2
Type
  10
106.98713322
  20
10.34198220
  40
1.00000000
  0
ATTRIB
  8
WptAttribs
  70
1
  1
N10 50.519 E106 41.228
  2
Position
  10
106.98713322
  20
10.34198220
  40
1.00000000
  0
ATTRIB
  8
WptAttribs
  70
1
  1
8 m
  2
Altitude
  10
106.98713322
  20
10.34198220
  40
1.00000000
  0
ATTRIB
  8
WptAttribs
  70
1
  1
Flag, Blue
  2
Symbol
  10
106.98713322
  20
10.34198220
  40
1.00000000
  0
ATTRIB
  8
WptAttribs
  70
1
  1
Symbol & Name
  2
DisplayMode
  10
106.98713322
  20
10.34198220
  40
1.00000000
  0
ATTRIB
  8
WptAttribs
  70
1
  1
Unknown
  2
Color
  10
106.98713322
  20
10.34198220
  40
1.00000000
  0
ATTRIB
  8
WptAttribs
  70
1
  1

  2
City
  10
106.98713322
  20
10.34198220
  40
1.00000000
  0
ATTRIB
  8
WptAttribs
  70
1
  1
12/29/2015 1:31:22 PM 
  2
Date Modified
  10
106.98713322
  20
10.34198220
  40
1.00000000
  0
ATTRIB
  8
WptAttribs
  70
1
  1

  2
Link
  10
106.98713322
  20
10.34198220
  40
1.00000000
  0
ATTRIB
  8
WptAttribs
  70
1
  1

  2
Categories
  10
106.98713322
  20
10.34198220
  40
1.00000000
  0
SEQEND
  0
POINT
  8
Waypoints
  10
106.68654959
  20
10.84175840
  30
2.52900000
  0
INSERT
  8
WptAttribs
  2
WAYPOINT
  41
1
  42
1
  43
1
  50
0
  10
106.68654959
  20
10.84175840
  30
2.52900000
  66
1
  0
ATTRIB
  8
WptAttribs
  70
0
  1
033
  2
Visible
  10
106.98654959
  20
10.34175840
  40
1.00000000
  0
ATTRIB
  8
WptAttribs
  70
1
  1
033
  2
Name
  10
106.98654959
  20
10.34175840
  40
1.00000000
  0
ATTRIB
  8
WptAttribs
  70
1
  1
29-DEC-15 13:33:28
  2
Description
  10
106.98654959
  20
10.34175840
  40
1.00000000
  0
ATTRIB
  8
WptAttribs
  70
1
  1
User Waypoint
  2
Type
  10
106.98654959
  20
10.34175840
  40
1.00000000
  0
ATTRIB
  8
WptAttribs
  70
1
  1
N10 50.506 E106 41.193
  2
Position
  10
106.98654959
  20
10.34175840
  40
1.00000000
  0
ATTRIB
  8
WptAttribs
  70
1
  1
3 m
  2
Altitude
  10
106.98654959
  20
10.34175840
  40
1.00000000
  0
ATTRIB
  8
WptAttribs
  70
1
  1
Flag, Blue
  2
Symbol
  10
106.98654959
  20
10.34175840
  40
1.00000000
  0
ATTRIB
  8
WptAttribs
  70
1
  1
Symbol & Name
  2
DisplayMode
  10
106.98654959
  20
10.34175840
  40
1.00000000
  0
ATTRIB
  8
WptAttribs
  70
1
  1
Unknown
  2
Color
  10
106.98654959
  20
10.34175840
  40
1.00000000
  0
ATTRIB
  8
WptAttribs
  70
1
  1

  2
City
  10
106.98654959
  20
10.34175840
  40
1.00000000
  0
ATTRIB
  8
WptAttribs
  70
1
  1
12/29/2015 1:33:28 PM 
  2
Date Modified
  10
106.98654959
  20
10.34175840
  40
1.00000000
  0
ATTRIB
  8
WptAttribs
  70
1
  1

  2
Link
  10
106.98654959
  20
10.34175840
  40
1.00000000
  0
ATTRIB
  8
WptAttribs
  70
1
  1

  2
Categories
  10
106.98654959
  20
10.34175840
  40
1.00000000
  0
SEQEND
  0
POINT
  8
Waypoints
  10
106.68638790
  20
10.84184993
  30
8.29700000
  0
INSERT
  8
WptAttribs
  2
WAYPOINT
  41
1
  42
1
  43
1
  50
0
  10
106.68638790
  20
10.84184993
  30
8.29700000
  66
1
  0
ATTRIB
  8
WptAttribs
  70
0
  1
034
  2
Visible
  10
106.98638790
  20
10.34184993
  40
1.00000000
  0
ATTRIB
  8
WptAttribs
  70
1
  1
034
  2
Name
  10
106.98638790
  20
10.34184993
  40
1.00000000
  0
ATTRIB
  8
WptAttribs
  70
1
  1
29-DEC-15 13:36:10
  2
Description
  10
106.98638790
  20
10.34184993
  40
1.00000000
  0
ATTRIB
  8
WptAttribs
  70
1
  1
User Waypoint
  2
Type
  10
106.98638790
  20
10.34184993
  40
1.00000000
  0
ATTRIB
  8
WptAttribs
  70
1
  1
N10 50.511 E106 41.183
  2
Position
  10
106.98638790
  20
10.34184993
  40
1.00000000
  0
ATTRIB
  8
WptAttribs
  70
1
  1
8 m
  2
Altitude
  10
106.98638790
  20
10.34184993
  40
1.00000000
  0
ATTRIB
  8
WptAttribs
  70
1
  1
Flag, Blue
  2
Symbol
  10
106.98638790
  20
10.34184993
  40
1.00000000
  0
ATTRIB
  8
WptAttribs
  70
1
  1
Symbol & Name
  2
DisplayMode
  10
106.98638790
  20
10.34184993
  40
1.00000000
  0
ATTRIB
  8
WptAttribs
  70
1
  1
Unknown
  2
Color
  10
106.98638790
  20
10.34184993
  40
1.00000000
  0
ATTRIB
  8
WptAttribs
  70
1
  1

  2
City
  10
106.98638790
  20
10.34184993
  40
1.00000000
  0
ATTRIB
  8
WptAttribs
  70
1
  1
12/29/2015 1:36:10 PM 
  2
Date Modified
  10
106.98638790
  20
10.34184993
  40
1.00000000
  0
ATTRIB
  8
WptAttribs
  70
1
  1

  2
Link
  10
106.98638790
  20
10.34184993
  40
1.00000000
  0
ATTRIB
  8
WptAttribs
  70
1
  1

  2
Categories
  10
106.98638790
  20
10.34184993
  40
1.00000000
  0
SEQEND
  0
POINT
  8
Waypoints
  10
106.68648236
  20
10.84161256
  30
9.73900000
  0
INSERT
  8
WptAttribs
  2
WAYPOINT
  41
1
  42
1
  43
1
  50
0
  10
106.68648236
  20
10.84161256
  30
9.73900000
  66
1
  0
ATTRIB
  8
WptAttribs
  70
0
  1
035
  2
Visible
  10
106.98648236
  20
10.34161256
  40
1.00000000
  0
ATTRIB
  8
WptAttribs
  70
1
  1
035
  2
Name
  10
106.98648236
  20
10.34161256
  40
1.00000000
  0
ATTRIB
  8
WptAttribs
  70
1
  1
29-DEC-15 13:37:00
  2
Description
  10
106.98648236
  20
10.34161256
  40
1.00000000
  0
ATTRIB
  8
WptAttribs
  70
1
  1
User Waypoint
  2
Type
  10
106.98648236
  20
10.34161256
  40
1.00000000
  0
ATTRIB
  8
WptAttribs
  70
1
  1
N10 50.497 E106 41.189
  2
Position
  10
106.98648236
  20
10.34161256
  40
1.00000000
  0
ATTRIB
  8
WptAttribs
  70
1
  1
10 m
  2
Altitude
  10
106.98648236
  20
10.34161256
  40
1.00000000
  0
ATTRIB
  8
WptAttribs
  70
1
  1
Flag, Blue
  2
Symbol
  10
106.98648236
  20
10.34161256
  40
1.00000000
  0
ATTRIB
  8
WptAttribs
  70
1
  1
Symbol & Name
  2
DisplayMode
  10
106.98648236
  20
10.34161256
  40
1.00000000
  0
ATTRIB
  8
WptAttribs
  70
1
  1
Unknown
  2
Color
  10
106.98648236
  20
10.34161256
  40
1.00000000
  0
ATTRIB
  8
WptAttribs
  70
1
  1

  2
City
  10
106.98648236
  20
10.34161256
  40
1.00000000
  0
ATTRIB
  8
WptAttribs
  70
1
  1
12/29/2015 1:37:00 PM 
  2
Date Modified
  10
106.98648236
  20
10.34161256
  40
1.00000000
  0
ATTRIB
  8
WptAttribs
  70
1
  1

  2
Link
  10
106.98648236
  20
10.34161256
  40
1.00000000
  0
ATTRIB
  8
WptAttribs
  70
1
  1

  2
Categories
  10
106.98648236
  20
10.34161256
  40
1.00000000
  0
SEQEND
  0
POINT
  8
Waypoints
  10
106.68620031
  20
10.84237430
  30
9.49900000
  0
INSERT
  8
WptAttribs
  2
WAYPOINT
  41
1
  42
1
  43
1
  50
0
  10
106.68620031
  20
10.84237430
  30
9.49900000
  66
1
  0
ATTRIB
  8
WptAttribs
  70
0
  1
036
  2
Visible
  10
106.98620031
  20
10.34237430
  40
1.00000000
  0
ATTRIB
  8
WptAttribs
  70
1
  1
036
  2
Name
  10
106.98620031
  20
10.34237430
  40
1.00000000
  0
ATTRIB
  8
WptAttribs
  70
1
  1
29-DEC-15 13:39:54
  2
Description
  10
106.98620031
  20
10.34237430
  40
1.00000000
  0
ATTRIB
  8
WptAttribs
  70
1
  1
User Waypoint
  2
Type
  10
106.98620031
  20
10.34237430
  40
1.00000000
  0
ATTRIB
  8
WptAttribs
  70
1
  1
N10 50.542 E106 41.172
  2
Position
  10
106.98620031
  20
10.34237430
  40
1.00000000
  0
ATTRIB
  8
WptAttribs
  70
1
  1
9 m
  2
Altitude
  10
106.98620031
  20
10.34237430
  40
1.00000000
  0
ATTRIB
  8
WptAttribs
  70
1
  1
Flag, Blue
  2
Symbol
  10
106.98620031
  20
10.34237430
  40
1.00000000
  0
ATTRIB
  8
WptAttribs
  70
1
  1
Symbol & Name
  2
DisplayMode
  10
106.98620031
  20
10.34237430
  40
1.00000000
  0
ATTRIB
  8
WptAttribs
  70
1
  1
Unknown
  2
Color
  10
106.98620031
  20
10.34237430
  40
1.00000000
  0
ATTRIB
  8
WptAttribs
  70
1
  1

  2
City
  10
106.98620031
  20
10.34237430
  40
1.00000000
  0
ATTRIB
  8
WptAttribs
  70
1
  1
12/29/2015 1:39:54 PM 
  2
Date Modified
  10
106.98620031
  20
10.34237430
  40
1.00000000
  0
ATTRIB
  8
WptAttribs
  70
1
  1

  2
Link
  10
106.98620031
  20
10.34237430
  40
1.00000000
  0
ATTRIB
  8
WptAttribs
  70
1
  1

  2
Categories
  10
106.98620031
  20
10.34237430
  40
1.00000000
  0
SEQEND
  0
POINT
  8
Waypoints
  10
106.68611775
  20
10.84252593
  30
9.25800000
  0
INSERT
  8
WptAttribs
  2
WAYPOINT
  41
1
  42
1
  43
1
  50
0
  10
106.68611775
  20
10.84252593
  30
9.25800000
  66
1
  0
ATTRIB
  8
WptAttribs
  70
0
  1
037
  2
Visible
  10
106.98611775
  20
10.34252593
  40
1.00000000
  0
ATTRIB
  8
WptAttribs
  70
1
  1
037
  2
Name
  10
106.98611775
  20
10.34252593
  40
1.00000000
  0
ATTRIB
  8
WptAttribs
  70
1
  1
29-DEC-15 13:40:19
  2
Description
  10
106.98611775
  20
10.34252593
  40
1.00000000
  0
ATTRIB
  8
WptAttribs
  70
1
  1
User Waypoint
  2
Type
  10
106.98611775
  20
10.34252593
  40
1.00000000
  0
ATTRIB
  8
WptAttribs
  70
1
  1
N10 50.552 E106 41.167
  2
Position
  10
106.98611775
  20
10.34252593
  40
1.00000000
  0
ATTRIB
  8
WptAttribs
  70
1
  1
9 m
  2
Altitude
  10
106.98611775
  20
10.34252593
  40
1.00000000
  0
ATTRIB
  8
WptAttribs
  70
1
  1
Flag, Blue
  2
Symbol
  10
106.98611775
  20
10.34252593
  40
1.00000000
  0
ATTRIB
  8
WptAttribs
  70
1
  1
Symbol & Name
  2
DisplayMode
  10
106.98611775
  20
10.34252593
  40
1.00000000
  0
ATTRIB
  8
WptAttribs
  70
1
  1
Unknown
  2
Color
  10
106.98611775
  20
10.34252593
  40
1.00000000
  0
ATTRIB
  8
WptAttribs
  70
1
  1

  2
City
  10
106.98611775
  20
10.34252593
  40
1.00000000
  0
ATTRIB
  8
WptAttribs
  70
1
  1
12/29/2015 1:40:19 PM 
  2
Date Modified
  10
106.98611775
  20
10.34252593
  40
1.00000000
  0
ATTRIB
  8
WptAttribs
  70
1
  1

  2
Link
  10
106.98611775
  20
10.34252593
  40
1.00000000
  0
ATTRIB
  8
WptAttribs
  70
1
  1

  2
Categories
  10
106.98611775
  20
10.34252593
  40
1.00000000
  0
SEQEND
  0
POINT
  8
Waypoints
  10
106.68605112
  20
10.84267521
  30
8.53700000
  0
INSERT
  8
WptAttribs
  2
WAYPOINT
  41
1
  42
1
  43
1
  50
0
  10
106.68605112
  20
10.84267521
  30
8.53700000
  66
1
  0
ATTRIB
  8
WptAttribs
  70
0
  1
038
  2
Visible
  10
106.98605112
  20
10.34267521
  40
1.00000000
  0
ATTRIB
  8
WptAttribs
  70
1
  1
038
  2
Name
  10
106.98605112
  20
10.34267521
  40
1.00000000
  0
ATTRIB
  8
WptAttribs
  70
1
  1
29-DEC-15 13:40:44
  2
Description
  10
106.98605112
  20
10.34267521
  40
1.00000000
  0
ATTRIB
  8
WptAttribs
  70
1
  1
User Waypoint
  2
Type
  10
106.98605112
  20
10.34267521
  40
1.00000000
  0
ATTRIB
  8
WptAttribs
  70
1
  1
N10 50.561 E106 41.163
  2
Position
  10
106.98605112
  20
10.34267521
  40
1.00000000
  0
ATTRIB
  8
WptAttribs
  70
1
  1
9 m
  2
Altitude
  10
106.98605112
  20
10.34267521
  40
1.00000000
  0
ATTRIB
  8
WptAttribs
  70
1
  1
Flag, Blue
  2
Symbol
  10
106.98605112
  20
10.34267521
  40
1.00000000
  0
ATTRIB
  8
WptAttribs
  70
1
  1
Symbol & Name
  2
DisplayMode
  10
106.98605112
  20
10.34267521
  40
1.00000000
  0
ATTRIB
  8
WptAttribs
  70
1
  1
Unknown
  2
Color
  10
106.98605112
  20
10.34267521
  40
1.00000000
  0
ATTRIB
  8
WptAttribs
  70
1
  1

  2
City
  10
106.98605112
  20
10.34267521
  40
1.00000000
  0
ATTRIB
  8
WptAttribs
  70
1
  1
12/29/2015 1:40:44 PM 
  2
Date Modified
  10
106.98605112
  20
10.34267521
  40
1.00000000
  0
ATTRIB
  8
WptAttribs
  70
1
  1

  2
Link
  10
106.98605112
  20
10.34267521
  40
1.00000000
  0
ATTRIB
  8
WptAttribs
  70
1
  1

  2
Categories
  10
106.98605112
  20
10.34267521
  40
1.00000000
  0
SEQEND
  0
POINT
  8
Waypoints
  10
106.68594106
  20
10.84282324
  30
7.09500000
  0
INSERT
  8
WptAttribs
  2
WAYPOINT
  41
1
  42
1
  43
1
  50
0
  10
106.68594106
  20
10.84282324
  30
7.09500000
  66
1
  0
ATTRIB
  8
WptAttribs
  70
0
  1
039
  2
Visible
  10
106.98594106
  20
10.34282324
  40
1.00000000
  0
ATTRIB
  8
WptAttribs
  70
1
  1
039
  2
Name
  10
106.98594106
  20
10.34282324
  40
1.00000000
  0
ATTRIB
  8
WptAttribs
  70
1
  1
29-DEC-15 13:41:30
  2
Description
  10
106.98594106
  20
10.34282324
  40
1.00000000
  0
ATTRIB
  8
WptAttribs
  70
1
  1
User Waypoint
  2
Type
  10
106.98594106
  20
10.34282324
  40
1.00000000
  0
ATTRIB
  8
WptAttribs
  70
1
  1
N10 50.569 E106 41.156
  2
Position
  10
106.98594106
  20
10.34282324
  40
1.00000000
  0
ATTRIB
  8
WptAttribs
  70
1
  1
7 m
  2
Altitude
  10
106.98594106
  20
10.34282324
  40
1.00000000
  0
ATTRIB
  8
WptAttribs
  70
1
  1
Flag, Blue
  2
Symbol
  10
106.98594106
  20
10.34282324
  40
1.00000000
  0
ATTRIB
  8
WptAttribs
  70
1
  1
Symbol & Name
  2
DisplayMode
  10
106.98594106
  20
10.34282324
  40
1.00000000
  0
ATTRIB
  8
WptAttribs
  70
1
  1
Unknown
  2
Color
  10
106.98594106
  20
10.34282324
  40
1.00000000
  0
ATTRIB
  8
WptAttribs
  70
1
  1

  2
City
  10
106.98594106
  20
10.34282324
  40
1.00000000
  0
ATTRIB
  8
WptAttribs
  70
1
  1
12/29/2015 1:41:30 PM 
  2
Date Modified
  10
106.98594106
  20
10.34282324
  40
1.00000000
  0
ATTRIB
  8
WptAttribs
  70
1
  1

  2
Link
  10
106.98594106
  20
10.34282324
  40
1.00000000
  0
ATTRIB
  8
WptAttribs
  70
1
  1

  2
Categories
  10
106.98594106
  20
10.34282324
  40
1.00000000
  0
SEQEND
  0
POINT
  8
Waypoints
  10
106.68632923
  20
10.84262040
  30
7.09500000
  0
INSERT
  8
WptAttribs
  2
WAYPOINT
  41
1
  42
1
  43
1
  50
0
  10
106.68632923
  20
10.84262040
  30
7.09500000
  66
1
  0
ATTRIB
  8
WptAttribs
  70
0
  1
040
  2
Visible
  10
106.98632923
  20
10.34262040
  40
1.00000000
  0
ATTRIB
  8
WptAttribs
  70
1
  1
040
  2
Name
  10
106.98632923
  20
10.34262040
  40
1.00000000
  0
ATTRIB
  8
WptAttribs
  70
1
  1
29-DEC-15 13:44:14
  2
Description
  10
106.98632923
  20
10.34262040
  40
1.00000000
  0
ATTRIB
  8
WptAttribs
  70
1
  1
User Waypoint
  2
Type
  10
106.98632923
  20
10.34262040
  40
1.00000000
  0
ATTRIB
  8
WptAttribs
  70
1
  1
N10 50.557 E106 41.180
  2
Position
  10
106.98632923
  20
10.34262040
  40
1.00000000
  0
ATTRIB
  8
WptAttribs
  70
1
  1
7 m
  2
Altitude
  10
106.98632923
  20
10.34262040
  40
1.00000000
  0
ATTRIB
  8
WptAttribs
  70
1
  1
Flag, Blue
  2
Symbol
  10
106.98632923
  20
10.34262040
  40
1.00000000
  0
ATTRIB
  8
WptAttribs
  70
1
  1
Symbol & Name
  2
DisplayMode
  10
106.98632923
  20
10.34262040
  40
1.00000000
  0
ATTRIB
  8
WptAttribs
  70
1
  1
Unknown
  2
Color
  10
106.98632923
  20
10.34262040
  40
1.00000000
  0
ATTRIB
  8
WptAttribs
  70
1
  1

  2
City
  10
106.98632923
  20
10.34262040
  40
1.00000000
  0
ATTRIB
  8
WptAttribs
  70
1
  1
12/29/2015 1:44:14 PM 
  2
Date Modified
  10
106.98632923
  20
10.34262040
  40
1.00000000
  0
ATTRIB
  8
WptAttribs
  70
1
  1

  2
Link
  10
106.98632923
  20
10.34262040
  40
1.00000000
  0
ATTRIB
  8
WptAttribs
  70
1
  1

  2
Categories
  10
106.98632923
  20
10.34262040
  40
1.00000000
  0
SEQEND
  0
POINT
  8
Waypoints
  10
106.68634691
  20
10.84293463
  30
2.77000000
  0
INSERT
  8
WptAttribs
  2
WAYPOINT
  41
1
  42
1
  43
1
  50
0
  10
106.68634691
  20
10.84293463
  30
2.77000000
  66
1
  0
ATTRIB
  8
WptAttribs
  70
0
  1
041
  2
Visible
  10
106.98634691
  20
10.34293463
  40
1.00000000
  0
ATTRIB
  8
WptAttribs
  70
1
  1
041
  2
Name
  10
106.98634691
  20
10.34293463
  40
1.00000000
  0
ATTRIB
  8
WptAttribs
  70
1
  1
29-DEC-15 13:47:42
  2
Description
  10
106.98634691
  20
10.34293463
  40
1.00000000
  0
ATTRIB
  8
WptAttribs
  70
1
  1
User Waypoint
  2
Type
  10
106.98634691
  20
10.34293463
  40
1.00000000
  0
ATTRIB
  8
WptAttribs
  70
1
  1
N10 50.576 E106 41.181
  2
Position
  10
106.98634691
  20
10.34293463
  40
1.00000000
  0
ATTRIB
  8
WptAttribs
  70
1
  1
3 m
  2
Altitude
  10
106.98634691
  20
10.34293463
  40
1.00000000
  0
ATTRIB
  8
WptAttribs
  70
1
  1
Flag, Blue
  2
Symbol
  10
106.98634691
  20
10.34293463
  40
1.00000000
  0
ATTRIB
  8
WptAttribs
  70
1
  1
Symbol & Name
  2
DisplayMode
  10
106.98634691
  20
10.34293463
  40
1.00000000
  0
ATTRIB
  8
WptAttribs
  70
1
  1
Unknown
  2
Color
  10
106.98634691
  20
10.34293463
  40
1.00000000
  0
ATTRIB
  8
WptAttribs
  70
1
  1

  2
City
  10
106.98634691
  20
10.34293463
  40
1.00000000
  0
ATTRIB
  8
WptAttribs
  70
1
  1
12/29/2015 1:47:42 PM 
  2
Date Modified
  10
106.98634691
  20
10.34293463
  40
1.00000000
  0
ATTRIB
  8
WptAttribs
  70
1
  1

  2
Link
  10
106.98634691
  20
10.34293463
  40
1.00000000
  0
ATTRIB
  8
WptAttribs
  70
1
  1

  2
Categories
  10
106.98634691
  20
10.34293463
  40
1.00000000
  0
SEQEND
  0
POINT
  8
Waypoints
  10
106.68438111
  20
10.84076305
  30
11.18100000
  0
INSERT
  8
WptAttribs
  2
WAYPOINT
  41
1
  42
1
  43
1
  50
0
  10
106.68438111
  20
10.84076305
  30
11.18100000
  66
1
  0
ATTRIB
  8
WptAttribs
  70
0
  1
042
  2
Visible
  10
106.98438111
  20
10.34076305
  40
1.00000000
  0
ATTRIB
  8
WptAttribs
  70
1
  1
042
  2
Name
  10
106.98438111
  20
10.34076305
  40
1.00000000
  0
ATTRIB
  8
WptAttribs
  70
1
  1
29-DEC-15 14:08:19
  2
Description
  10
106.98438111
  20
10.34076305
  40
1.00000000
  0
ATTRIB
  8
WptAttribs
  70
1
  1
User Waypoint
  2
Type
  10
106.98438111
  20
10.34076305
  40
1.00000000
  0
ATTRIB
  8
WptAttribs
  70
1
  1
N10 50.446 E106 41.063
  2
Position
  10
106.98438111
  20
10.34076305
  40
1.00000000
  0
ATTRIB
  8
WptAttribs
  70
1
  1
11 m
  2
Altitude
  10
106.98438111
  20
10.34076305
  40
1.00000000
  0
ATTRIB
  8
WptAttribs
  70
1
  1
Flag, Blue
  2
Symbol
  10
106.98438111
  20
10.34076305
  40
1.00000000
  0
ATTRIB
  8
WptAttribs
  70
1
  1
Symbol & Name
  2
DisplayMode
  10
106.98438111
  20
10.34076305
  40
1.00000000
  0
ATTRIB
  8
WptAttribs
  70
1
  1
Unknown
  2
Color
  10
106.98438111
  20
10.34076305
  40
1.00000000
  0
ATTRIB
  8
WptAttribs
  70
1
  1

  2
City
  10
106.98438111
  20
10.34076305
  40
1.00000000
  0
ATTRIB
  8
WptAttribs
  70
1
  1
12/29/2015 2:08:19 PM 
  2
Date Modified
  10
106.98438111
  20
10.34076305
  40
1.00000000
  0
ATTRIB
  8
WptAttribs
  70
1
  1

  2
Link
  10
106.98438111
  20
10.34076305
  40
1.00000000
  0
ATTRIB
  8
WptAttribs
  70
1
  1

  2
Categories
  10
106.98438111
  20
10.34076305
  40
1.00000000
  0
SEQEND
  0
ENDSEC
  0
EOF
